<?xml version="1.0" encoding="UTF-8"?>
<svg id="_Layer_" data-name="&amp;lt;Layer&amp;gt;" xmlns="http://www.w3.org/2000/svg" xmlns:xlink="http://www.w3.org/1999/xlink" viewBox="0 0 3600 2000">
  <defs>
    <style>
      .cls-1 {
        fill: #00dbef;
      }

      .cls-2 {
        fill: #522878;
      }

      .cls-3 {
        fill: #fff;
      }

      .cls-4 {
        fill: #ffa100;
      }

      .cls-5 {
        fill: url(#_Áåçûìÿííûé_ãðàäèåíò_78);
      }

      .cls-6 {
        fill: #4c88f2;
      }

      .cls-7 {
        fill: #52286c;
      }

      .cls-8 {
        fill: #f1a34f;
      }

      .cls-9 {
        fill: #db7714;
      }

      .cls-10 {
        fill: #2e3552;
      }

      .cls-11 {
        fill: #ffde69;
      }

      .cls-12 {
        fill: #ea9c68;
      }

      .cls-13 {
        fill: url(#_Áåçûìÿííûé_ãðàäèåíò_78-3);
      }

      .cls-14 {
        fill: #739af0;
      }

      .cls-15 {
        fill: #ff753c;
      }

      .cls-16 {
        fill: #5685d8;
      }

      .cls-17 {
        fill: #462160;
      }

      .cls-18 {
        fill: #6f36bb;
      }

      .cls-19 {
        fill: #ffb27d;
      }

      .cls-20 {
        fill: url(#_Áåçûìÿííûé_ãðàäèåíò_78-2);
      }
    </style>
    <linearGradient id="_Áåçûìÿííûé_ãðàäèåíò_78" data-name="Áåçûìÿííûé ãðàäèåíò 78" x1="1789.23" y1="1046.18" x2="2048.27" y2="1046.18" gradientTransform="translate(3837.5 2092.36) rotate(-180)" gradientUnits="userSpaceOnUse">
      <stop offset="0" stop-color="#f1cc52"/>
      <stop offset="1" stop-color="#ff6935"/>
    </linearGradient>
    <linearGradient id="_Áåçûìÿííûé_ãðàäèåíò_78-2" data-name="Áåçûìÿííûé ãðàäèåíò 78" x1="1783.93" y1="1266.79" x2="2053.56" y2="1266.79" gradientTransform="matrix(1,0,0,1,0,0)" xlink:href="#_Áåçûìÿííûé_ãðàäèåíò_78"/>
    <linearGradient id="_Áåçûìÿííûé_ãðàäèåíò_78-3" data-name="Áåçûìÿííûé ãðàäèåíò 78" x1="1070.04" y1="1106.28" x2="1411.21" y2="1106.28" gradientTransform="matrix(1,0,0,1,0,0)" xlink:href="#_Áåçûìÿííûé_ãðàäèåíò_78"/>
  </defs>
  <path class="cls-1" d="m2838.53,1809.1l-787.19-4.36-209.83-.07-69.51-.03-210.23-.07-960.46-.28s-219.68-300.37,14.98-585.66c243.3-295.79,361.61-54.9,436.39-471.25,188.25-1048.03,2049.45-438.05,1561.27,453.78-175.78,321.12,346,150.44,224.58,607.93Z"/>
  <g>
    <path class="cls-18" d="m1631.78,1803c2.8,0,5.19-1.63,5.67-3.86l27.78-130.83,39.96-188.16,11.17-52.62-28.46-.67-4.94,30.54-34.67,214.64-20.55,127.23c-.32,1.97,1.58,3.72,4.05,3.72Z"/>
    <path class="cls-2" d="m1682.96,1457.4c18.44,6.76,22.23,22.75,22.23,22.75l11.17-52.62-28.46-.67-4.94,30.54Z"/>
    <path class="cls-18" d="m2219.34,1803c-2.8,0-5.19-1.63-5.67-3.86l-27.78-130.83-39.96-188.16-11.17-52.62,28.46-.67,4.94,30.54,34.67,214.64,20.55,127.23c.32,1.97-1.58,3.72-4.05,3.72Z"/>
    <path class="cls-2" d="m2168.16,1457.4c-18.44,6.76-22.23,22.75-22.23,22.75l-11.17-52.62,28.46-.67,4.94,30.54Z"/>
    <path class="cls-18" d="m1607.59,1448.19h608.91c11.36,0,20.66-9.3,20.66-20.66h0c0-11.36-9.3-20.66-20.66-20.66h-608.91c-11.36,0-20.66,9.3-20.66,20.66h0c0,11.36,9.29,20.66,20.66,20.66Z"/>
  </g>
  <g>
    <path class="cls-15" d="m1989.93,979.44c0-7.24,5.87-13.12,13.12-13.12s13.12,5.87,13.12,13.12-5.87,13.12-13.12,13.12-13.12-5.87-13.12-13.12Z"/>
    <path class="cls-15" d="m2003.05,974.4h0c-1.04,0-1.88-.85-1.88-1.88v-53.09c0-1.04.85-1.88,1.88-1.88h0c1.04,0,1.88.85,1.88,1.88v53.09c0,1.04-.85,1.88-1.88,1.88Z"/>
    <path class="cls-15" d="m1837.37,979.44c0-7.24,5.87-13.12,13.12-13.12s13.12,5.87,13.12,13.12-5.87,13.12-13.12,13.12-13.12-5.87-13.12-13.12Z"/>
    <g>
      <path class="cls-15" d="m1636.66,1254.4c-.27,2.22.5,4.52,2.29,6.13,2.9,2.61,7.37,2.37,9.98-.54,2.65-2.92,11.34-10.53,19.46-10.52,3.83,0,7.27,1.74,10.5,5.32,12.44,13.76-5.25,34.07-5.43,34.27-2.59,2.92-2.32,7.39.61,9.98,2.92,2.59,7.39,2.32,9.98-.61,9.13-10.31,22-34.69,5.33-53.12-5.91-6.54-13.19-9.99-21.04-9.97-6.94.01-14.12,2.62-21.34,7.75-5.02,3.57-8.22,7.07-8.57,7.46-1,1.12-1.58,2.47-1.75,3.85Z"/>
      <path class="cls-4" d="m1681.92,1251.28c0,1.22.44,2.45,1.32,3.43,1.9,2.11,5.15,2.28,7.26.38l16.44-14.8c2.11-1.9,2.28-5.15.38-7.26-1.9-2.11-5.15-2.28-7.26-.38l-16.44,14.8c-1.13,1.02-1.7,2.42-1.7,3.83Z"/>
    </g>
    <path class="cls-4" d="m1698.09,1246.84l1.4.93c1.61,1.08,3.28,1.98,5,2.72.02,0,.04.02.06.02,11.31,4.8,24.65,2.36,33.62-6.58,18.55-18.45,43.1-31.26,73.32-38.2,1.17-.27,2.32-.52,3.47-.75,11.43-2.42,21.99-3.62,30.72-4.16,13.48-.86,24.37-11.34,25.58-24.78l.09-.93.43-4.66c1.09-11.71-8.3-21.71-20.05-21.39-11.48.32-26.66,1.51-43.59,4.81-11.34,2.2-23.45,5.34-35.8,9.82-27.09,9.8-55.22,25.91-78.38,52.25-8.25,9.4-6.29,23.96,4.12,30.92Z"/>
    <path class="cls-15" d="m1704.56,1250.5c11.31,4.8,24.65,2.36,33.62-6.58,18.55-18.45,43.1-31.26,73.32-38.2,1.17-.27,2.32-.52,3.47-.75-2.66-24.99-5.42-50.36-5.42-50.36l-1.4-.75c-11.34,2.2-23.45,5.34-35.8,9.82,0,0,5.7,25.14-14.97,37.32-20.67,12.18-37.64,54.72-52.83,49.52Z"/>
    <path class="cls-15" d="m2024.13,1136.41c10.55-9.47,6.74-25.42,6.57-26.09l-10.07,2.86,5.04-1.43-5.04,1.4c.02.1,2.27,9.85-3.19,14.74l6.71,8.52Z"/>
    <path class="cls-15" d="m1882.36,1136.41c-10.55-9.47-6.74-25.42-6.57-26.09l10.07,2.86-5.04-1.43,5.04,1.4c-.02.1-2.26,9.85,3.19,14.74l-6.71,8.52Z"/>
    <rect class="cls-4" x="1842.37" y="976.38" width="259.04" height="139.6" rx="7.13" ry="7.13" transform="translate(3943.77 2092.36) rotate(180)"/>
    <rect class="cls-5" x="1789.23" y="976.38" width="259.04" height="139.6" rx="7.13" ry="7.13" transform="translate(3837.5 2092.36) rotate(180)"/>
    <path class="cls-4" d="m1859.73,1126.81h242.1c7.6,0,13.77,6.17,13.77,13.77v252.44c0,7.6-6.17,13.77-13.77,13.77h-242.1c-7.6,0-13.77-6.17-13.77-13.77v-252.44c0-7.6,6.17-13.77,13.77-13.77Z" transform="translate(3961.55 2533.59) rotate(180)"/>
    <path class="cls-20" d="m2053.56,1144.52v244.56c0,9.73-7.97,17.71-17.72,17.71h-234.21c-9.75,0-17.72-7.97-17.72-17.71v-244.56c0-9.74,7.97-17.72,17.72-17.72h234.21c9.75,0,17.72,7.97,17.72,17.72Z"/>
    <rect class="cls-4" x="1713.64" y="1339.12" width="185.41" height="68.4" rx="3.49" ry="3.49" transform="translate(3612.69 2746.64) rotate(180)"/>
    <rect class="cls-15" x="1751.37" y="1339.12" width="185.41" height="68.4" rx="3.49" ry="3.49" transform="translate(3688.15 2746.64) rotate(180)"/>
    <rect class="cls-4" x="1806.35" y="1339.12" width="185.41" height="68.4" rx="3.49" ry="3.49" transform="translate(3798.1 2746.64) rotate(180)"/>
    <path class="cls-15" d="m1844.08,1355.78v35.09c0,9.15,7.5,16.65,16.67,16.65h152.08c9.17,0,16.67-7.5,16.67-16.65v-35.09c0-9.17-7.5-16.66-16.67-16.66h-152.08c-9.17,0-16.67,7.5-16.67,16.66Z"/>
    <path class="cls-4" d="m1844.08,1388.28v2.58c0,9.15,7.5,16.65,16.67,16.65h152.08c9.17,0,16.67-7.5,16.67-16.65v-35.09c0-9.17-7.5-16.66-16.67-16.66h-55.68c-12.69,19.84-43.52,50.16-113.07,49.17Z"/>
    <rect class="cls-4" x="1895.16" y="1115.98" width="85.61" height="10.83" transform="translate(3875.93 2242.79) rotate(180)"/>
    <rect class="cls-15" x="1965.18" y="1115.98" width="49.51" height="10.83" transform="translate(3979.87 2242.79) rotate(180)"/>
    <g>
      <path class="cls-4" d="m1808.46,1153.97l12.52,15.51c2.13,2.65,6.17,2.65,8.31,0l5.01-6.2,8-9.91c1.66-2.06.2-5.12-2.44-5.12h-28.65c-2.95,0-4.59,3.43-2.74,5.72Z"/>
      <path class="cls-15" d="m1808.46,1153.97l12.52,15.51c2.13,2.65,6.17,2.65,8.31,0l5.01-6.2c-10.95-2.65-15.14-10.42-16.7-15.03h-6.4c-2.95,0-4.59,3.43-2.74,5.72Z"/>
    </g>
    <g>
      <path class="cls-4" d="m2068.94,1188.14s0-.01,0-.03l-1.73-5.07-.35-1c-5.04-14.67,1.45-30.76,15.19-38.01,9.76-5.13,21.54-12.15,33.52-21.21,28.41-21.47,48.15-46.43,58.93-74.48,6.02-15.68,22.17-25.01,38.74-22.2l1.93.33c7.09,1.21,12.87,5.4,16.33,11.01,3.47,5.59,4.62,12.6,2.5,19.47-25.42,82.26-96.65,126.21-133.97,144.18-12.17,5.86-26.71-.21-31.06-13Z"/>
      <path class="cls-15" d="m2068.93,1188.11l-1.73-5.07-.35-1c-5.04-14.67,1.45-30.76,15.19-38.01,9.76-5.13,21.54-12.15,33.52-21.21,28.41-21.47,48.15-46.43,58.93-74.48,6.02-15.68,22.17-25.01,38.74-22.2l1.93.33c7.09,1.21,12.87,5.4,16.33,11.01-15.74-3.54-33.94-2.77-41.56,15.82-14.67,35.81-57.93,74.75-92.82,95.78-34.11,20.54-28.44,38.25-28.17,39.04Z"/>
      <g>
        <path class="cls-15" d="m2209.57,954.73c2.3-1.13,5.1-1.16,7.51.17,3.92,2.17,5.35,7.11,3.18,11.03-2.16,3.98-7.14,16.28-4.07,25.08,1.45,4.16,4.63,7.22,9.73,9.38,19.63,8.31,34.98-18.55,35.14-18.82,2.2-3.91,7.14-5.3,11.05-3.11,3.91,2.19,5.3,7.14,3.11,11.05-7.75,13.8-29.34,36.95-55.62,25.82-9.32-3.95-15.81-10.54-18.76-19.07-2.61-7.53-2.49-16.31.35-26.07,1.97-6.79,4.57-11.59,4.86-12.12.83-1.51,2.08-2.65,3.52-3.36Z"/>
        <path class="cls-4" d="m2223.26,1005.02c1.33-.46,2.82-.45,4.22.14,3.01,1.26,4.42,4.73,3.15,7.73l-9.85,23.42c-1.26,3-4.73,4.42-7.73,3.15-3.01-1.27-4.42-4.73-3.15-7.73l9.85-23.42c.68-1.61,1.98-2.76,3.51-3.29Z"/>
      </g>
    </g>
    <path class="cls-1" d="m1871.11,1066.73h105.99s-10.8,22.42-58.35,22.43c-39.03,0-47.64-22.43-47.64-22.43Z"/>
    <rect class="cls-6" x="1810.69" y="1003.71" width="223.27" height="48.93"/>
    <g>
      <rect class="cls-1" x="1848.88" y="1024.17" width="5.09" height="5.09"/>
      <rect class="cls-1" x="1842.43" y="1024.17" width="5.09" height="5.09"/>
      <rect class="cls-1" x="1842.43" y="1030.83" width="5.09" height="5.09"/>
      <rect class="cls-1" x="1835.76" y="1024.17" width="5.09" height="5.09"/>
      <rect class="cls-1" x="1855.35" y="1024.17" width="5.09" height="5.09"/>
      <rect class="cls-1" x="1855.35" y="1030.83" width="5.09" height="5.09"/>
      <rect class="cls-1" x="1861.83" y="1024.17" width="5.09" height="5.09"/>
      <rect class="cls-1" x="1848.88" y="1017.58" width="5.09" height="5.09"/>
      <rect class="cls-1" x="1848.88" y="1011.47" width="5.09" height="5.09"/>
      <rect class="cls-1" x="1855.35" y="1017.58" width="5.09" height="5.09"/>
      <rect class="cls-1" x="1842.43" y="1017.58" width="5.09" height="5.09"/>
      <rect class="cls-1" x="1848.88" y="1030.83" width="5.09" height="5.09"/>
      <rect class="cls-1" x="1848.88" y="1037.53" width="5.09" height="5.09"/>
    </g>
    <g>
      <rect class="cls-1" x="1985" y="1024.17" width="5.09" height="5.09"/>
      <rect class="cls-1" x="1978.56" y="1024.17" width="5.09" height="5.09"/>
      <rect class="cls-1" x="1978.56" y="1030.83" width="5.09" height="5.09"/>
      <rect class="cls-1" x="1971.89" y="1024.17" width="5.09" height="5.09"/>
      <rect class="cls-1" x="1991.48" y="1024.17" width="5.09" height="5.09"/>
      <rect class="cls-1" x="1991.48" y="1030.83" width="5.09" height="5.09"/>
      <rect class="cls-1" x="1997.95" y="1024.17" width="5.09" height="5.09"/>
      <rect class="cls-1" x="1985" y="1017.58" width="5.09" height="5.09"/>
      <rect class="cls-1" x="1985" y="1011.47" width="5.09" height="5.09"/>
      <rect class="cls-1" x="1991.48" y="1017.58" width="5.09" height="5.09"/>
      <rect class="cls-1" x="1978.56" y="1017.58" width="5.09" height="5.09"/>
      <rect class="cls-1" x="1985" y="1030.83" width="5.09" height="5.09"/>
      <rect class="cls-1" x="1985" y="1037.53" width="5.09" height="5.09"/>
    </g>
    <path class="cls-15" d="m1850.48,974.4h0c-1.04,0-1.88-.85-1.88-1.88v-53.09c0-1.04.85-1.88,1.88-1.88h0c1.04,0,1.89.85,1.89,1.88v53.09c0,1.04-.85,1.88-1.89,1.88Z"/>
    <g>
      <path class="cls-3" d="m1990.02,1142.89c0-2.02,1.63-3.65,3.65-3.65s3.65,1.63,3.65,3.65-1.64,3.65-3.65,3.65-3.65-1.63-3.65-3.65Z"/>
      <path class="cls-3" d="m2005.67,1142.89c0-2.02,1.63-3.65,3.65-3.65s3.65,1.63,3.65,3.65-1.63,3.65-3.65,3.65-3.65-1.63-3.65-3.65Z"/>
      <path class="cls-3" d="m2021.16,1142.89c0-2.02,1.64-3.65,3.65-3.65s3.65,1.63,3.65,3.65-1.63,3.65-3.65,3.65-3.65-1.63-3.65-3.65Z"/>
    </g>
    <polygon class="cls-2" points="1981.56 1126.8 1918.47 1232.75 1862.87 1126.8 1865.22 1126.8 1918.59 1228.48 1979.13 1126.8 1981.56 1126.8"/>
    <g>
      <path class="cls-18" d="m1869.47,1238.43c0-27.21,22.06-49.28,49.27-49.28s49.28,22.06,49.28,49.28-22.06,49.28-49.28,49.28-49.27-22.06-49.27-49.28Z"/>
      <path class="cls-4" d="m1918.75,1281.88c-23.96,0-43.45-19.49-43.45-43.45s19.49-43.45,43.45-43.45,43.45,19.49,43.45,43.45-19.49,43.45-43.45,43.45Zm0-81.62c-21.05,0-38.18,17.13-38.18,38.18s17.13,38.18,38.18,38.18,38.18-17.13,38.18-38.18-17.13-38.18-38.18-38.18Z"/>
      <path class="cls-3" d="m1905.22,1263.55v-3.05c8.48-.46,9.06-1.37,9.03-7.31l-.15-29.87c-.02-4.21-1.51-4.53-4.89-4.93l-2.48-.4v-2.72c6.34-.77,13.43-2.46,18.29-4.22l.21,42.08c.03,6.11.53,6.85,8.95,7.22v3.05s-28.95.14-28.95.14Z"/>
    </g>
  </g>
  <path class="cls-19" d="m1294.91,941.25l-66.47,45.86-20.83-47.57s6.82-18.32,7.22-46.9c.16-12.02-.8-25.85-3.91-40.91l62.02,22.06s-.67,5.55-.55,13.6c.14,8.7,1.23,20.3,5.11,30.95,3.34,9.14,8.75,17.57,17.41,22.9Z"/>
  <path class="cls-19" d="m1303.76,936.56s103.93-75.22,110.94-86.31c7.01-11.08,44.7-112.68,44.7-112.68l22.41,5.1s-17.12,124.71-29.18,148.11c-12.05,23.4-134.84,115.6-134.84,115.6l-14.03-69.81Z"/>
  <path class="cls-2" d="m1409.52,1750.49s7.5,14.63,24.11,18.25c10.46,2.28,19.42,7.72,25,15.36,4.71,6.45.15,15.53-7.84,15.53h-84.32c-7.18,0-12.78-6.2-12.06-13.34.63-6.25,1.28-13.52,1.57-19.1.62-12.18,12.82-21.98,12.82-21.98l40.72,5.28Z"/>
  <path class="cls-18" d="m1411.55,1753.26s-20.23,11.95-54.45,4.74c0,0-58.19-148.79-61.63-218.81-.16-2.81-.2-5.49-.16-8.04,1.17-65.85-59.63-237.34-43.23-272.47,16.4-35.15,148.92,15.79,148.92,15.79l2.63,119.5,7.92,359.3Z"/>
  <path class="cls-2" d="m1403.63,1393.96l-108.17,145.23c-.16-2.81-.2-5.49-.16-8.04,1.17-65.85-59.63-237.34-43.23-272.47,16.4-35.15,148.92,15.79,148.92,15.79l2.63,119.5Z"/>
  <path class="cls-2" d="m1192.41,1750.42s7.5,14.63,24.11,18.25c10.46,2.28,19.42,7.72,25,15.36,4.71,6.45.15,15.53-7.84,15.53h-84.31c-7.18,0-12.78-6.2-12.06-13.34.63-6.25,1.28-13.52,1.57-19.1.62-12.18,12.82-21.98,12.82-21.98l40.72,5.28Z"/>
  <path class="cls-18" d="m1323.49,1277.29s-117.12,437.07-120.71,479.84c0,0-22.85,11.72-59.93-8.98,0,0-9.23-192.47,0-249.43,15-92.53,17.28-223.3,72.06-259.79,54.77-36.5,108.58,38.36,108.58,38.36Z"/>
  <path class="cls-12" d="m1277.5,918.35c-33.15,3.49-62.67-25.71-62.67-25.71l57.56-5.24c.14,8.7,1.23,20.3,5.11,30.95Z"/>
  <path class="cls-19" d="m1295.27,884.35s-56.89,38.57-96.03-3.7c-42.24-45.62-30.39-93.81-10.03-103.93,40.61-20.18,70.96-12.65,84.43,1.84,13.47,14.49,53.13,84.81,21.63,105.79Z"/>
  <g>
    <path class="cls-2" d="m1214.82,893.08s-13.2-17.9-16.36-29.73c0,0-23.69-15.12-15.97-23.63,7.72-8.51,17.2,2.03,18.53-1.16,1.33-3.19-9.65-45.39,2.38-48.16,12.03-2.77,59.53-4.54,72.62-27.32,13.09-22.79-54.68-70.07-123.31-18.52-68.63,51.55-24.46,130.76,62.1,148.52Z"/>
    <path class="cls-2" d="m1126.46,791.59s-7.16-9.2-6.02-17.97c0,0,3.79,10.2,9.42,13.35,5.63,3.15-3.4,4.62-3.4,4.62Z"/>
    <path class="cls-2" d="m1125.5,783.73s-9.93,2.27-11.86,11.2c0,0,5.13-6.91,13.63-4.48l-1.76-6.72Z"/>
  </g>
  <path class="cls-3" d="m1254.89,861.51s8.87,9.65,27.78,2.35c0,0,12.78-8.08,7.67-19.82,0,0-19.4-.78-35.44,17.48Z"/>
  <path class="cls-19" d="m1459.14,739.19s1.45-9.79-.88-18.39c-2.33-8.6-1.9-34.23,2.03-32.61,3.94,1.62,4.97,13.49,9.6,13.05,4.63-.44,10.24-10.49,15.91-7.61,5.67,2.87,13.32-2.48,9.65,15.5-3.67,17.98-13.91,35.16-13.91,35.16l-22.41-5.1Z"/>
  <g>
    <path class="cls-19" d="m1180.46,1019.82s-61.69,89.35-92.52,117.7c0,0-38.31,111.13-41.51,118.49-3.2,7.36-26.81-4.56-26.81-4.56,0,0,10.55-106.61,25.97-138.87,15.41-32.26,62.78-140.29,99.98-146.19,37.19-5.9,34.89,53.42,34.89,53.42Z"/>
    <path class="cls-19" d="m1045.94,1256.22s-1.82,10.98.64,20.7c2.46,9.72-2.51,33.6-6.91,31.7-4.4-1.9-1.32-10.33-6.55-9.92-5.22.41-16.72,27.49-23.05,24.15-6.33-3.34-10.02-13.35-5.55-33.5,4.47-20.15,16.3-39.29,16.3-39.29l25.11,6.15Z"/>
  </g>
  <path class="cls-13" d="m1387.57,1288.43c-19.26,8.07-40.18,14.19-61.12,18.81h0s-.03,0-.06.02c-62.16,13.75-124.41,14.44-143.38,14.29-3.8-.03-5.85-.09-5.85-.09-9.06-.95-16.06-8.01-17.2-16.74-.16-1.13-.19-2.29-.15-3.45,0,0-3.75-103.11-4.88-126.51-1.83-37.53-8.46-94.62-8.46-94.62l-14.09,14.34s-21.65.66-41.45-12.92c-17.74-12.17-20.87-31.65-20.87-31.65,0,0,44.83-71.18,73.03-91.11,20.18-14.26,64.54-19.25,64.54-19.25,12.3,9.67,35.85,23.17,59.36,16.89,17.67-4.74,18.87-15.03,17.2-25.25l78.51-40.21s33.43,24.36,31.88,70.42c0,0-28.58,20.68-32.12,34.82-8.97,35.78,47.88,248.2,47.88,248.2,3.92,18.24-5.58,36.81-22.77,44.02Z"/>
  <path class="cls-15" d="m1326.44,1307.25s-.03,0-.06.02c-62.16,13.75-124.41,14.44-143.38,14.29-3.8-.03-5.85-.09-5.85-.09-9.06-.95-16.06-8.01-17.2-16.74-.16-1.13-.19-2.29-.15-3.45,0,0-3.75-103.11-4.88-126.51-1.83-37.53-8.46-94.62-8.46-94.62,0,0,47.41,159.31,73.15,196.17,25.53,36.58,105.58,31.03,106.85,30.93Z"/>
  <g>
    <g>
      <path class="cls-7" d="m1884.34,781.7l-87.64,62.14c-4.56-6.43-6.08-14.1-4.85-21.31,1.23-7.21,5.2-13.94,11.64-18.5,5.67-4.02,7-11.88,2.98-17.54l-27.81-39.22,20.52-14.55,27.81,39.22c2.01,2.83,4.98,4.59,8.15,5.13,3.18.54,6.56-.13,9.39-2.14,6.43-4.56,14.1-6.08,21.31-4.85,7.2,1.23,13.94,5.2,18.5,11.63Z"/>
      <path class="cls-18" d="m1884.34,781.7l-58.26,41.31c-16.48,8.27-23-2.11-21.77-9.32,1.23-7.21,5.2-13.94,11.64-18.51,5.67-4.02,7-11.88,2.98-17.54l-27.81-39.22,8.05-5.71,27.81,39.22c2.01,2.83,4.98,4.59,8.15,5.13,3.18.54,6.56-.13,9.39-2.14,6.43-4.56,14.1-6.08,21.31-4.85,7.2,1.23,13.94,5.2,18.5,11.63Z"/>
      <path class="cls-18" d="m1745.81,428.22l56.34,105.63c28.9,40.77,29.88,89.96,14.37,129.94,0,0,0,.01,0,.02-5.28,13.62-12.47,26.17-21.13,36.95-7.15,8.91-6.77,22.91,1.01,33.9l1.63,2.3c4.81,6.81,8.86,12.51,8.86,12.51l-14.94,10.59s-4.09-5.76-8.95-12.6c-8.57-12.06-22.92-17.85-34.85-13.9-51.01,16.86-117.13,2.76-155.41-51.22l-79.24-89.39,232.32-164.71Z"/>
      <path class="cls-7" d="m1655.69,728.39c-29.8-19.59-54.13-11.64-79.89-3.22-20.6,6.73-41.9,13.69-66.05,6.68-26.79-7.78-47.55-30.85-51.66-57.41-3.12-20.2,4.17-37.84,19.98-48.44,22.49-15.04,51.81-11.52,84.8,10.19,23.63,15.55,40.9,34.87,41.62,35.68l-11.77,10.46c-.64-.72-64.12-71.19-105.89-43.25-14.42,9.64-14.44,24.78-13.18,32.95,3.14,20.31,19.79,38.69,40.49,44.7,19.49,5.66,37.6-.26,56.77-6.52,26.86-8.77,57.3-18.72,93.43,5.03l-8.65,13.16Z"/>
      <path class="cls-18" d="m1824.77,608.51c-8.62-34.6,6.94-54.93,23.4-76.46,13.17-17.21,26.78-35.01,28.16-60.12,1.53-27.85-13.38-55.08-37.08-67.75-18.03-9.64-37.09-8.59-52.33,2.82-21.64,16.24-28.01,45.08-18.45,83.39,6.85,27.44,19.37,50.13,19.9,51.08l13.76-7.65c-.46-.84-45.96-84.07-5.76-114.24,13.86-10.42,28.17-5.43,35.46-1.53,18.12,9.68,29.96,31.48,28.78,53-1.11,20.26-12.69,35.39-24.94,51.41-17.17,22.44-36.63,47.87-26.18,89.83l15.28-3.81Z"/>
      <path class="cls-7" d="m1816.5,663.8c-5.28,13.62-12.47,26.17-21.13,36.95-7.15,8.91-6.77,22.91,1.01,33.9l1.63,2.3c.41,6.15,2.03,11.37,5.4,14.96l-11.48,8.14s-4.09-5.76-8.95-12.6c-8.57-12.06-22.92-17.85-34.85-13.9-51.01,16.86-117.13,2.76-155.41-51.22l-79.24-89.39,38.41-27.23s138.03,238.38,264.61,98.1Z"/>
      <path class="cls-18" d="m1819.55,744.19l-38.26,27.13c-5.19,3.68-12.46,2.45-16.14-2.75h0c-3.68-5.19-2.44-12.46,2.75-16.14l38.26-27.13c5.19-3.68,12.46-2.45,16.14,2.75h0c3.68,5.19,2.45,12.46-2.75,16.14Z"/>
    </g>
    <path class="cls-3" d="m1700.76,679.14l-4.82-6.79c18.25-14.32,18.11-17.25,8.74-30.46l-47.1-66.44c-6.64-9.36-10.46-7.75-18.64-3.33l-6.16,2.99-4.29-6.06c12.96-11.67,26.14-26.53,34.24-38.06l66.36,93.6c9.63,13.58,11.9,14.45,31.27,2.1l4.81,6.79-64.42,45.67Z"/>
  </g>
  <rect class="cls-10" x="431.92" y="1799.53" width="2500.02" height="7.76" rx=".4" ry=".4"/>
  <g>
    <path class="cls-15" d="m955.84,833.33s8.97,12.29,8.01,26.31c-.71,10.41-9.99,20.94-10.61,21.35l14.64,7.81s10.86-19.28,7.2-35.38c-1.12-4.94-6.31-12.83-10.13-16.35-4.2-3.88-9.11-3.74-9.11-3.74Z"/>
    <path class="cls-4" d="m925.91,834.63l-9.27-20.5s43.27,1.46,57.61,36.72c0,0-30.28-21.59-48.34-16.23Z"/>
  </g>
  <g>
    <path class="cls-15" d="m2512.71,998.16s-16.37-8.92-22.64-24.95c-4.66-11.9.11-28.41.58-29.2l-20.3-.99s-1.94,27.03,10.54,42.95c3.83,4.88,13.71,10.91,19.77,12.81,6.68,2.09,12.05-.62,12.05-.62Z"/>
    <path class="cls-4" d="m2545.18,981.05l21,17.85s-48.69,21.02-83.02-10.52c0,0,44.84,8.07,62.02-7.33Z"/>
  </g>
  <g>
    <path class="cls-15" d="m701.6,1342.66s-12.63-9.54-15.89-23.79c-2.42-10.58,3.65-23.85,4.15-24.46l-16.93-3.37s-5.01,22.46,3.48,37.4c2.6,4.58,10.15,10.88,15,13.23,5.35,2.6,10.2.99,10.2.99Z"/>
    <path class="cls-4" d="m731.02,1332.36l15.4,17.62s-43.53,11.56-68.42-19.24c0,0,36.65,12.39,53.02,1.62Z"/>
  </g>
  <g>
    <path class="cls-8" d="m2596.87,1246.67s-1.11-16.56,29.97-24.57c13.93-3.59,44.95,2.79,25.28,33.31-20.45,31.74-38.68,20.28-38.68,20.28,0,0,42.66-33.39,25.59-48.65-18.84-16.85-26.08,16.54-26.08,16.54,0,0-7.59-.4-16.08,3.09Z"/>
    <path class="cls-9" d="m2607.89,1277.61s-11.62-6.3-7.02-20.26l16.71,2.9s-6.42,15.12,9.29,16.95c0,0-15.12,3.59-18.98.41Z"/>
  </g>
  <g>
    <path class="cls-16" d="m1247.07,488.31s24.7-35.58,62.59-10.38l23.07-22.06s-21.55-16.37-71.27,12.98c-32.53,19.2-14.38,19.46-14.38,19.46Z"/>
    <path class="cls-14" d="m1222.69,523.19s-4.89-40.84,63.47-66.32c0,0-24.71,11.98-32.33,52.68l-31.14,13.63Z"/>
  </g>
  <g>
    <path class="cls-16" d="m2464.24,1488.34s-30.41-1.54-29.43-33.51l-21.74-5.58s-1.77,18.94,34.21,37.73c23.54,12.29,16.96,1.36,16.96,1.36Z"/>
    <path class="cls-14" d="m2494.11,1489.95s-22.57,18.08-63.15-13.27c0,0,16.32,10.3,43.45-.25l19.7,13.53Z"/>
  </g>
  <g>
    <path class="cls-4" d="m2027.56,480.46s-30.41-1.54-29.43-33.51l-21.74-5.58s-1.77,18.94,34.21,37.73c23.54,12.29,16.96,1.36,16.96,1.36Z"/>
    <path class="cls-11" d="m2057.43,482.06s-22.57,18.08-63.15-13.28c0,0,16.32,10.3,43.45-.25l19.7,13.53Z"/>
  </g>
  <path class="cls-17" d="m2169.15,690.98s18.43-11.64,20.37-25.71c0,0,17.95.97,21.83,6.79,0,0-8.25,23.28-17.95,27.65,0,0-21.83,1.46-24.25-8.73Z"/>
  <path class="cls-11" d="m1539.69,1123.89s22.35-14.12,24.7-31.17c0,0,21.76,1.18,26.46,8.23,0,0-10,28.23-21.76,33.52,0,0-26.46,1.76-29.41-10.59Z"/>
  <path class="cls-15" d="m2178.89,1646.4s-15.15-9.57-16.75-21.13c0,0-14.75.8-17.94,5.58,0,0,6.78,19.14,14.75,22.72,0,0,17.94,1.2,19.93-7.18Z"/>
  <path class="cls-4" d="m2009.54,799.41s13.3,12.13,24.92,10.6c0,0,3.15,14.5-.63,18.86,0,0-20.34-1.47-25.93-8.24,0,0-5.93-17.06,1.65-21.22Z"/>
  <path class="cls-19" d="m1480.19,690.04s-.63,6.53,4.93,13.31c5.56,6.78,12.7,10.34,13.66,6.21.95-4.13-3.17-31.62-18.59-19.52Z"/>
</svg>