<?xml version="1.0" encoding="UTF-8"?>
<svg id="OBJECTS" xmlns="http://www.w3.org/2000/svg" viewBox="0 0 500 500">
  <defs>
    <style>
      .cls-1, .cls-2, .cls-3, .cls-4 {
        fill: #28101d;
      }

      .cls-5 {
        fill: #5a407c;
      }

      .cls-6 {
        fill: #fff;
      }

      .cls-7 {
        fill: #ab93d8;
      }

      .cls-8 {
        opacity: .37;
      }

      .cls-8, .cls-9 {
        fill: #d7e9f4;
      }

      .cls-10 {
        fill: #60a555;
      }

      .cls-11, .cls-12 {
        opacity: .35;
      }

      .cls-11, .cls-13 {
        fill: #5e3528;
      }

      .cls-14, .cls-12, .cls-15, .cls-16, .cls-17, .cls-18, .cls-19, .cls-20, .cls-21 {
        fill: none;
      }

      .cls-14, .cls-22 {
        opacity: .66;
      }

      .cls-2 {
        opacity: .39;
      }

      .cls-15 {
        opacity: .57;
      }

      .cls-16 {
        opacity: .58;
      }

      .cls-23, .cls-24 {
        fill: #54213b;
      }

      .cls-24 {
        opacity: .63;
      }

      .cls-13, .cls-18 {
        opacity: .47;
      }

      .cls-25 {
        opacity: .19;
      }

      .cls-25, .cls-26 {
        fill: #8e543f;
      }

      .cls-27 {
        fill: #f27584;
      }

      .cls-28 {
        fill: #1e5b41;
      }

      .cls-29 {
        opacity: .36;
      }

      .cls-29, .cls-30 {
        fill: #f4ba38;
      }

      .cls-31 {
        fill: #84c16f;
      }

      .cls-32 {
        fill: #f9f8e5;
      }

      .cls-17 {
        opacity: .32;
      }

      .cls-19 {
        opacity: .6;
      }

      .cls-33 {
        fill: #327f61;
      }

      .cls-34, .cls-35, .cls-22 {
        fill: #1e143a;
      }

      .cls-35 {
        opacity: .31;
      }

      .cls-20 {
        opacity: .2;
      }

      .cls-3 {
        opacity: .56;
      }

      .cls-36 {
        fill: #ffc3b3;
      }

      .cls-37 {
        fill: #cfe58c;
      }

      .cls-38 {
        fill: #3d2e56;
      }

      .cls-4 {
        opacity: .45;
      }

      .cls-21 {
        opacity: .92;
      }
    </style>
  </defs>
  <rect class="cls-6" width="500" height="500"/>
  <g>
    <circle class="cls-8" cx="253.48" cy="267.18" r="172.84" transform="translate(-114.68 257.49) rotate(-45)"/>
    <g>
      <g>
        <g>
          <path class="cls-23" d="m331.02,402.26s-1.02,8.28-2.55,20.42h0c-2.12,16.93-5.23,41.38-7.91,61.44-.21,1.55-.41,3.06-.61,4.55-.36,2.67-.71,5.24-1.05,7.67-.14,1.01-.28,2-.41,2.96h-60.47c.27-6.17.83-20.2,1.12-36.11h0c0-.07,0-.14,0-.2-4.28.78-8.31.77-11.81.39-.15-.02-.29-.03-.44-.05-.19-.02-.38-.05-.56-.07.29,15.88.85,29.88,1.12,36.04h-60.47c-.13-.96-.27-1.94-.41-2.95-.34-2.43-.69-4.99-1.05-7.65-.16-1.19-.32-2.39-.49-3.62-2.56-19.1-5.53-42.41-7.67-59.43-1.73-13.75-2.92-23.39-2.92-23.39,0,0,0,0,.02,0,.7-.23,19.72-6.56,38.31-9.96,6.89-1.26,13.73-2.12,19.55-2.11,10.38,0,17.54,2.76,16.08,10.85-.03.16-.06.33-.09.49l8.54-2.42c-.06-8.07,10.11-9.73,22.94-8.62,21.78,1.89,51.21,11.76,51.21,11.76Z"/>
          <path class="cls-4" d="m208.75,407.79s-3.41,7.88,42.34,9.1c45.76,1.22,54.21-15.2,54.21-15.2,0,0-64.4-6.65-78.04-5.81-13.64.85-29.97,1.09-29.97,1.09l11.46,10.81Z"/>
          <path class="cls-2" d="m247.45,499.31h-60.47c-.13-.96-.27-1.94-.41-2.95-.34-2.43-.69-4.99-1.05-7.65,3.47,2.09,11.27,4.13,28.75,3.12,32.43-1.87,25.03-27.47,25.03-27.47,0,0-4.71-2.76-8.21-10.24,0,0,7.16,7.1,15.22,9.08.19.05.38.09.58.13-.19-.02-.38-.05-.56-.07.29,15.88.85,29.88,1.12,36.04Z"/>
          <path class="cls-3" d="m247.45,499.31h-60.47c-.13-.96-.27-1.94-.41-2.95,3.08.91,10.2,1.72,26.57,1.08,30.88-1.22,35.15-4.39,30.74-34.46l2.44.22,1.01.09s0,.03,0,.09c-.15-.02-.29-.03-.44-.05-.19-.02-.38-.05-.56-.07.29,15.88.85,29.88,1.12,36.04Z"/>
          <path class="cls-2" d="m319.95,488.67c-.36,2.67-.71,5.24-1.05,7.67-.14,1.01-.28,2-.41,2.96h-60.47c.27-6.17.83-20.2,1.12-36.11h0c8.04-2,15.18-9.08,15.18-9.08-3.49,7.48-8.21,10.24-8.21,10.24,0,0-7.4,25.6,25.03,27.47,17.57,1.01,25.35-1.05,28.8-3.16Z"/>
          <path class="cls-3" d="m318.9,496.35c-.14,1.01-.28,2-.41,2.96h-60.47c.27-6.17.83-20.2,1.12-36.11l2.41-.22c-4.41,30.07-.15,33.24,30.74,34.46,16.45.65,23.56-.18,26.62-1.09Z"/>
          <path class="cls-2" d="m328.47,422.69h0c-2.12,16.93-5.23,41.38-7.91,61.44-12.49-14.07-47.07-22.17-39.88-33.91,7.96-13,7.96-41.78,7.96-41.78,0,0-.89-13,6.01-13s29.26,14.22,31.37,17.39c.51.76,1.39,4.54,2.44,9.86Z"/>
          <path class="cls-2" d="m185.04,485.09c-2.56-19.1-5.53-42.41-7.67-59.43,1.29-6.84,2.41-11.92,3.01-12.82,2.11-3.17,24.46-17.39,31.37-17.39s6.01,13,6.01,13c0,0,0,28.77,7.96,41.78,7.35,12-28.99,20.2-40.7,34.87Z"/>
        </g>
        <path class="cls-1" d="m252.38,464.64c-2.21,0-4.4-.27-6.56-.81-5.79-1.46-9.25-4.34-9.39-4.46l1.05-1.24s3.37,2.79,8.82,4.14c7.28,1.81,14.7.38,22.05-4.25l.87,1.38c-4.26,2.68-8.63,4.36-12.99,4.98-1.28.18-2.56.27-3.84.27Z"/>
      </g>
      <g>
        <g>
          <path class="cls-5" d="m298.51,406.49s-23.42,7.73-45.73,7.09c-22.31.63-45.73-7.09-45.73-7.09,0,0,.35-3.87.96-10.49.16-1.72.33-3.62.53-5.68.36-3.83.76-8.23,1.22-13.07.37-3.95.77-8.19,1.2-12.66.18-1.87.36-3.77.55-5.71.65-6.79,1.35-14,2.08-21.43,1.18-12,2.44-24.55,3.72-36.77,1.36-13.08,2.74-25.77,4.04-36.99.25-2.17.5-4.28.75-6.33.68-5.7,1.34-10.91,1.96-15.47.29-2.16.58-4.18.86-6.03,1.18-7.92,2.17-12.79,2.87-13.19.2-.12.4-.24.58-.36.51-.36.95-.75,1.32-1.17.03-.03.06-.06.09-.1.1-.12.19-.23.28-.35.72-.96,1.13-2,1.37-2.92.28-1.12.3-2.08.29-2.51,0-.16-.01-.25-.01-.25,0,0-3.09-5.85-1.71-8.45,1.38-2.6,8.78-7.88,8.78-7.88l14.04,7.38,14.04-7.38s7.4,5.28,8.78,7.88c1.38,2.6-1.71,8.45-1.71,8.45,0,0,0,.03,0,.08,0,.02,0,.05,0,.08,0,.11,0,.27,0,.47.03,1.14.3,3.6,2.08,5.56,0,0,0,0,.01.01,0,0,.01.01.02.02.06.07.13.14.2.21.45.45.98.87,1.61,1.23.69.39,1.68,5.22,2.85,13.08.29,1.92.59,4.03.89,6.29.59,4.38,1.22,9.36,1.88,14.79.26,2.18.53,4.42.8,6.74,1.33,11.42,2.73,24.39,4.12,37.73h0c.51,4.86,1.01,9.77,1.51,14.68,1.53,15.04,2.99,30.02,4.27,43.34.19,1.98.38,3.93.56,5.83.64,6.69,1.22,12.87,1.73,18.3.27,2.84.51,5.48.73,7.87.2,2.12.37,4.05.53,5.77.55,5.95.86,9.41.86,9.41Z"/>
          <g class="cls-18">
            <path class="cls-7" d="m276.18,221.44c-.08.1-.16.19-.24.29,0,0,0,0,0,0-.69.81-1.45,1.64-2.29,2.48-1.61,1.6-3.31,2.99-5.07,4.18-.55.37-1.11.72-1.67,1.04-.66.39-1.33.74-2.01,1.07-1.06.51-2.13.95-3.22,1.31-2.73.91-5.56,1.37-8.45,1.37-.26,0-.52,0-.78-.01-1.72-.05-3.43-.24-5.12-.56-2.48-.47-4.92-1.24-7.3-2.3-.86-.38-1.72-.81-2.57-1.27-.97-.53-1.93-1.1-2.87-1.72-1.25-.82-2.47-1.73-3.65-2.71-.35-.29-.69-.58-1.02-.87-.55-.49-1.07-.97-1.55-1.44.51-.36.95-.75,1.32-1.17.03-.03.06-.06.09-.1.1-.12.19-.23.28-.35.72-.96,1.13-2,1.37-2.92.87.89,1.9,1.85,3.07,2.81.61.5,1.22.97,1.84,1.42,1.22.88,2.45,1.66,3.71,2.34,1.24.67,2.51,1.25,3.79,1.73,2.85,1.07,5.78,1.64,8.79,1.73,3.69.11,7.22-.7,10.53-2.41,1.65-.85,3.25-1.92,4.79-3.22.12-.1.24-.2.36-.31.5-.43.99-.89,1.48-1.36,1.74-1.71,3.12-3.45,4.12-4.86.03,1.14.3,3.6,2.08,5.56,0,0,0,0,.01.01,0,0,.01.01.02.02.06.07.13.14.2.21Z"/>
            <path class="cls-7" d="m281.54,242.05c-2.92,2.34-5.99,4.29-9.16,5.82-.56.27-1.13.53-1.7.77-5.18,2.23-10.64,3.36-16.24,3.36-.4,0-.8,0-1.2-.02-6.32-.18-12.55-1.57-18.54-4.13-.23-.1-.47-.2-.7-.3-3.41-1.51-6.74-3.41-9.95-5.66.29-2.16.58-4.18.86-6.03,2.55,1.97,5.16,3.68,7.83,5.12,6.58,3.55,13.5,5.44,20.67,5.64,6.85.2,13.34-1.48,19.38-5.01,2.72-1.58,5.34-3.53,7.87-5.86.29,1.92.59,4.03.89,6.29Z"/>
            <path class="cls-7" d="m284.21,263.57c-3.71,3.38-7.68,6.11-11.83,8.11-3.7,1.78-7.55,3-11.5,3.62-2.12.34-4.27.51-6.45.51-.4,0-.8,0-1.2-.02-2.81-.08-5.6-.4-8.37-.95-3.69-.74-7.33-1.9-10.87-3.48-4.38-1.95-8.64-4.52-12.66-7.67.25-2.17.5-4.28.75-6.33.42.37.86.74,1.31,1.11,6.77,5.57,13.98,9.22,21.52,10.91,2.78.62,5.61.97,8.48,1.06,2.46.07,4.88-.1,7.24-.51,7.76-1.35,14.97-5.3,21.52-11.78.44-.43.86-.87,1.27-1.3.26,2.18.53,4.42.8,6.74Z"/>
            <path class="cls-7" d="m294.67,365.15c-3.04,1.6-6.14,3.01-9.32,4.22-2.94,1.12-5.93,2.07-8.96,2.84-6.73,1.72-13.69,2.58-20.81,2.58-.66,0-1.33,0-1.99-.02-10.18-.23-20.23-1.95-29.92-5.11-.74-.24-1.47-.49-2.21-.75-3.56-1.25-7.07-2.7-10.52-4.34.18-1.87.36-3.77.55-5.71,3.18,1.58,6.65,3.1,10.4,4.48,9.07,3.33,19.76,5.8,31.82,6.07,9.18.21,17.42-1.14,24.67-3.36,5.91-1.8,11.16-4.17,15.73-6.74.19,1.98.38,3.93.56,5.83Z"/>
            <g>
              <polygon class="cls-7" points="182.42 372.65 182.42 372.65 180.49 374.5 182.42 372.65"/>
              <path class="cls-7" d="m297.66,397.09c-3.75,1.86-7.63,3.46-11.6,4.78-9.41,3.13-19.38,4.72-29.66,4.72-.66,0-1.32,0-1.98-.02-10.92-.22-21.7-1.93-32.03-5.1-4.9-1.5-9.71-3.33-14.38-5.47.16-1.72.33-3.62.53-5.68,5.44,2.59,11.91,5.13,19.31,7.11,7.89,2.11,16.83,3.58,26.68,3.77.62.01,1.24.02,1.86.02,10.52,0,19.76-1.77,27.65-4.36,4.89-1.61,9.26-3.53,13.1-5.53.2,2.12.37,4.05.53,5.77Z"/>
            </g>
          </g>
        </g>
        <path class="cls-35" d="m298.51,406.49s-23.42,7.73-45.73,7.09c-22.31.63-45.73-7.09-45.73-7.09,0,0,.35-3.87.96-10.49.16-1.72.33-3.62.53-5.68.64-6.95,1.47-15.78,2.42-25.73.18-1.87.36-3.77.55-5.71.65-6.79,1.35-14,2.08-21.43l8.18,7.03s-1.82,8.91.14,18.87c.41,2.08.98,4.22,1.78,6.32,3.54,9.42,11.42,18.33,28.24,20.24,12.65,1.44,20.13-6.45,24.48-17.69.76-1.96,1.42-4.02,2-6.16,6.19-22.89,2.65-53.87,2.65-53.87,0,0,4.09,1.57,8.82,3.79,1.53,15.04,2.99,30.02,4.27,43.34.19,1.98.38,3.93.56,5.83.97,10.2,1.81,19.19,2.46,26.17.2,2.12.37,4.05.53,5.77.55,5.95.86,9.41.86,9.41Z"/>
        <path class="cls-35" d="m244.87,274.84c-.25,1.19-.63,2.52-1.17,4.05-3.49,10,1.63,32.02-11.3,34.05-12.92,2.03-15.4-8.01-15.01-8.8.05-.09,0-1.34-.1-3.46,1.36-13.08,2.74-25.77,4.04-36.99.25-2.17.5-4.28.75-6.33.68-5.7,1.34-10.91,1.96-15.47.29-2.16.58-4.18.86-6.03,1.18-7.92,2.17-12.79,2.87-13.19.2-.12.4-.24.58-.36.51-.36.95-.75,1.32-1.17.06.74.14,1.62.24,2.6.43,4.33,1.27,10.77,2.83,17.23.56,2.32,1.21,4.65,1.97,6.88.79,2.33,1.7,4.56,2.75,6.57,3.99,7.7,6.62,11.33,7.46,14.95.39,1.69.39,3.37-.04,5.46Z"/>
        <path class="cls-35" d="m288.34,301.3c-.08,1.74-.12,2.76-.08,2.84.38.79-2.09,10.83-15.01,8.8-12.92-2.03-7.8-24.06-11.3-34.05-.47-1.34-.82-2.52-1.07-3.59-.48-2.08-.55-3.75-.25-5.39.69-3.81,3.39-7.41,7.58-15.49.93-1.79,1.75-3.74,2.47-5.78.81-2.27,1.5-4.64,2.09-7.03,1.93-7.76,2.8-15.6,3.17-19.88,0,0,0,0,0,0,.01-.17.03-.34.04-.5.06.07.13.14.2.21.45.45.98.87,1.61,1.23.69.39,1.68,5.22,2.85,13.08.29,1.92.59,4.03.89,6.29.59,4.38,1.22,9.36,1.88,14.79.26,2.18.53,4.42.8,6.74,1.33,11.42,2.73,24.39,4.12,37.73h0Z"/>
        <path class="cls-22" d="m270.21,208.18c-1.79-3.66-1.35-6.71-1.35-6.71l-16.17,8.95-16.18-8.95s.44,3.05-1.35,6.71c-1.79,3.66-1.3,3.33,2.28,5.69,3.58,2.36,2.76,7.23,6.91,7.07.74-.03,1.51-.03,2.3-.02,1.95.03,4.03.17,6.04.26,2-.1,4.08-.23,6.03-.26.79-.01,1.57-.01,2.3.02,4.14.16,3.33-4.71,6.91-7.07,3.58-2.36,4.06-2.03,2.28-5.69Z"/>
        <path class="cls-22" d="m275.95,221.2c-.22.26-3.12,3.73-7.38,7.18-1.25,1.02-2.62,2.03-4.07,2.96-6.58,4.23-19.83,2.93-25.68-.49-1.49-.87-2.93-2.14-4.25-3.53-1.96-2.08-3.64-4.45-4.82-6.28.1-.12.19-.23.28-.35.69-.91,1.09-1.89,1.33-2.78.01-.05.03-.09.04-.14.28-1.12.3-2.08.29-2.51,0-.16-.01-.25-.01-.25,0,0,3.9,6.34,8.35,9.34.36.24.72.46,1.08.66.78.42,1.69.77,2.71,1.07,5.31,1.57,13.31,1.52,18.67-.42.22-.08.44-.17.65-.26,1.74-.75,3.36-1.92,4.79-3.22,3.56-3.22,5.93-7.17,5.93-7.17l.03.08s0,.05,0,.08c0,.11,0,.27,0,.47,0,.35.04.82.13,1.36.2,1.23.72,2.84,1.95,4.2Z"/>
        <path class="cls-22" d="m274,217c-2.48,3.95-8.23,11.79-15.02,12.39-9.1.81-16.01,1.06-20.97-3.74-2.84-2.75-5.18-5.71-6.65-7.74.01-.05.03-.09.04-.14.28-1.12.3-2.08.29-2.51,0-.16-.01-.25-.01-.25,0,0,3.9,6.34,8.35,9.34.36.24.72.46,1.08.66.78.42,1.69.77,2.71,1.07,5.31,1.57,13.31,1.52,18.67-.42.22-.08.44-.17.65-.26,1.74-.75,3.36-1.92,4.79-3.22,3.56-3.22,5.93-7.17,5.93-7.17l.03.08s0,.05,0,.08c0,.11,0,.27,0,.47,0,.35.04.82.13,1.36Z"/>
        <path class="cls-22" d="m298.51,406.49s-23.42,7.73-45.73,7.09c-22.31.63-45.73-7.09-45.73-7.09,0,0,.35-3.87.96-10.49.16-1.72.33-3.62.53-5.68.36-3.83.76-8.23,1.22-13.07l3.88-2.7s.48,14.3,14.21,22.88c5.77,3.61,13.89,6.2,25.29,6.3,14.8.13,24.53-2.99,30.9-6.87,10.2-6.22,11.77-14.42,11.77-14.42,0,0,.22.36.59,1.02.27,2.84.51,5.48.73,7.87.2,2.12.37,4.05.53,5.77.55,5.95.86,9.41.86,9.41Z"/>
      </g>
      <g>
        <g>
          <path class="cls-36" d="m381.32,266.31s3.78-6.31,2.13-25.93,4.92-22.36,5.07-29.11c.15-6.75.69-14.69.69-14.69,0,0,11.27-6.1,8.92,22.77l2.33,2.66s4.25-.86,16.68-17.35c12.43-16.49,17.65-14.01,17.38-11.45,0,0,5.65-5.69,9.41-1.05l-3.49,7.16s10.08-5.36.72,12.14c0,0,1.64-.97,3.29.33,1.65,1.3-1.11,6.81-12.35,22.56,0,0-6.37,11.31-12.82,17.68,0,0-3.1,6.53-3.59,12.6-.49,6.07-31.53,2.82-31.53,2.82l-2.84-1.13Z"/>
          <g>
            <path class="cls-27" d="m394.21,247.48l-1.28-.52c2.52-6.19,6.27-10.28,11.15-12.14,4.04-1.54,8.08-1.22,10.77-.69,2.9.58,4.83,1.52,4.92,1.56l-.61,1.24s-1.89-.91-4.63-1.45c-2.5-.5-6.25-.79-9.97.64-4.5,1.72-7.98,5.55-10.35,11.37Z"/>
            <path class="cls-27" d="m427.37,228.06l-1.02-.93c6.76-7.47,14.33-16.12,14.41-16.2l1.04.91c-.08.09-7.66,8.74-14.42,16.22Z"/>
            <path class="cls-27" d="m424.34,221.78l-1.02-.93c7.9-8.73,16.57-21.84,16.66-21.98l1.15.76c-.09.13-8.82,13.33-16.79,22.14Z"/>
            <path class="cls-27" d="m418.48,217.21l-1.01-.95c7.71-8.21,16.48-23.31,16.57-23.46l1.2.69c-.09.15-8.93,15.39-16.75,23.72Z"/>
            <path class="cls-27" d="m426.74,229.91s-.17-2.63-1.72-5.57c-2.06-3.92-5.47-6.57-10.13-7.89l.37-1.33c6.31,1.78,9.47,5.67,11.01,8.63,1.67,3.2,1.84,5.97,1.85,6.08l-1.38.08Z"/>
            <path class="cls-27" d="m401.29,231.15l-1.36-.24c1.27-7.08-2.17-11.12-2.2-11.16l1.04-.91c.16.18,3.9,4.58,2.52,12.31Z"/>
          </g>
          <g class="cls-20">
            <path class="cls-27" d="m418.84,235.61s-17.04-6.54-24.79,10.47c0,0-1.07-11.33,1.82-18.67s3.57-.39,5.31-.91c1.74-.52,13.3-3.76,17.66,9.11Z"/>
          </g>
        </g>
        <g>
          <path class="cls-37" d="m273.66,283.91c1.19,3.28,2.63,7.14,4.37,11.7,1.53,3.99,2.72,7.55,3.65,10.82.73,2.56,1.31,4.94,1.77,7.23.17.86.33,1.71.47,2.55.52,3.06.86,5.99,1.11,9,.03.32.05.65.08.98.89,11.46.72,24.27,5,49.06,7.73,44.74-4.05,75-4.05,75,.3.82.9,1.77,1.74,2.81,2,2.5,5.37,5.54,9.42,8.6.99.75,2.02,1.5,3.08,2.24,8.47,5.94,18.85,11.46,25.86,12.63,1.68.28,3.17.31,4.39.04,7.56-1.69,25.78-18.08,35.75-27.47,4.08-3.85,6.78-6.52,6.78-6.52,0,0,7.33-17.84-21.29-62.45-.47-.74-.93-1.46-1.38-2.18-3.97-6.37-7.08-12.16-9.48-17.47-3.19-7.06-5.14-13.27-6.2-18.86-.21-1.08-.38-2.14-.52-3.18-.07-.48-.13-.96-.18-1.43-.63-5.53-.4-10.45.26-15,.13-.9.27-1.78.43-2.65.11-.59.22-1.17.34-1.74.56-2.76,1.24-5.4,1.92-8.01,0,0,0,0,0,0,.99-3.81,1.99-7.53,2.66-11.38,2.57-14.89-.35-40.81-4.6-55.15-.13-.44-.26-.86-.39-1.28-.08-.26-.16-.51-.25-.76-1.4-4.2-2.91-7.1-4.41-7.96,0,0,0,0,0,0-1.27-.73-4.13-1.61-7.9-2.54-.39-.1-.79-.19-1.2-.29-2.01-.48-4.25-.97-6.6-1.47-3.5-.73-7.29-1.47-11.05-2.17-1.96-.36-3.91-.72-5.81-1.06-1.63-.29-3.23-.57-4.77-.84-1.43-.25-2.82-.48-4.12-.7-2.02-.34-3.87-.65-5.46-.91-.71-.12-1.37-.22-1.96-.32-2.48-.4-3.97-.63-3.97-.63l-3.1,32.25-5.91,11.27s-.87.57,5.55,18.27Z"/>
          <path class="cls-37" d="m330.4,337.5c1.39.39,2.66.7,3.81.93,3.95.82,6.34.83,6.34.83l1.62,5.86,1.3,4.7.03.1,4.38,2.54,5.57,6.45c2.63,1.2,4.6,2.63,6.25,4.15,1.33,1.23,2.45,2.52,3.52,3.79,3.56,4.21,6.7,8.26,15.65,9.42,7.32.95,13.37-1.49,17.83-5.02.25-.2.49-.4.73-.6,4.26-3.63,6.93-8.21,7.7-11.48,1.58-6.74-14.33-40.96-26.28-57.36-2.53-3.47-4.69-6.37-6.67-9.01-.03-.04-.06-.08-.09-.13-.01-.02-.02-.03-.04-.05-3.84-5.13-6.96-9.29-10.58-14.73-1.29-1.94-2.65-4.05-4.13-6.43-2.25-3.61-4.77-7.84-7.77-13.05-1.17-2.03-2.29-3.9-3.35-5.63-2.75-4.47-5.14-7.94-7.18-10.62-.74-.97-1.42-1.84-2.07-2.62-.2-.24-.4-.48-.59-.7-4.28-5.01-6.37-5.79-6.43-5.81,0,0,0,0,0,0,0,0-.41,7.32-.89,18.08-.06,1.36-.12,2.77-.19,4.23-.36,8.48-.74,18.56-1.01,28.69-.03,1-.05,2-.07,3-.01.48-.02.97-.03,1.45-.55,24.56-.31,48.16,2.62,48.99Z"/>
          <path class="cls-10" d="m352.74,433.2l-2.87,5.19s-27.58-9.49-41.96-26.23l3.28-5.51s13.57,15.43,41.55,26.55Z"/>
          <g>
            <g>
              <path class="cls-10" d="m293.65,343.96l5.28,2.82,12.09,6.45s5.78-5.47,9.43-9.53c1.71-1.9,2.95-3.49,2.92-4.07,0-.14-.03-.42-.06-.8-.2-2.68-.81-10.71-1.26-16.53-.06-.73-.11-1.42-.16-2.06-.2-2.63-.34-4.45-.34-4.45-.05-.03-.1-.07-.15-.1-.79-.55-1.59-1.04-2.38-1.46-10.38-5.55-20.58-.75-25.5,2.39-1.31.84-2.25,1.56-2.71,1.93-.21.17-.32.27-.32.27l.39,3.12.38,3.04,2.02,16.12.36,2.86Z"/>
              <path class="cls-28" d="m311.7,353.11c-1.66-9.46-2.62-27.23-2.62-27.41l-1.38.07c0,.18.97,18.03,2.64,27.57l1.36-.24Z"/>
            </g>
            <g>
              <path class="cls-10" d="m288.68,320.09l19.87,6.45s14.81-9.61,14.83-10.36c0-.15,0-.58-.02-1.18-.01-.54-.03-1.22-.06-1.94h0c-.07-2.34-.17-5.12-.17-5.12-16.73-4.84-35.68,2.71-35.68,2.71l.69,5.27.18,1.37.37,2.8Z"/>
              <g class="cls-17">
                <path class="cls-33" d="m288.68,320.09l19.87,6.45s14.81-9.61,14.83-10.36c0-.15,0-.58-.02-1.18-1.53,1.38-4.51,3.81-7.83,5-4.8,1.71-4.21-4.87-8.15-4.66-3.94.21-2.31,4.61-7.13,5.75-4.63,1.09-10.45-1.55-11.93-3.79l.37,2.8Z"/>
              </g>
              <path class="cls-28" d="m305.09,319.27c.27,1.36,1.6,2.25,2.97,1.97,1.36-.27,2.25-1.6,1.97-2.97s-1.6-2.25-2.97-1.97-2.25,1.6-1.97,2.97Z"/>
            </g>
          </g>
          <g class="cls-15">
            <path class="cls-31" d="m314.27,228.76c1.78,1.37,3.53,3.04,5.14,5.05,8.07,10.12,7.56,29.71,7.56,29.71.5-5.12,1.23-9.17,2.11-12.38,1.52-5.53,3.45-8.54,5.3-10.12.91-.79,1.81-1.22,2.61-1.45-.2-.24-.4-.48-.59-.7-4.28-5.01-6.37-5.79-6.43-5.81,0,0,0,0,0,0-1.27-.73-4.13-1.61-7.9-2.54-.39-.1-.79-.19-1.2-.29-2.01-.48-4.25-.97-6.6-1.47Z"/>
          </g>
          <g class="cls-15">
            <path class="cls-31" d="m323.18,308.84c2.51,27.41-8.11,53.69,18.37,88.62,26.47,34.93,13.45,53.96,2.8,53.9,0,0,5.93,15.39-16.38,24.38-.67.27-1.27.53-1.79.79,1.68.28,3.17.31,4.39.04,7.56-1.69,25.78-18.08,35.75-27.47,4.08-3.85,6.78-6.52,6.78-6.52,0,0,7.33-17.84-21.29-62.45-.47-.74-.93-1.46-1.38-2.18-3.97-6.37-7.08-12.16-9.48-17.47-3.19-7.06-5.14-13.27-6.2-18.86-.21-1.08-.38-2.14-.52-3.18,3.95.82,6.34.83,6.34.83l1.62,5.86,1.3,4.7.03.1,4.38,2.54,5.57,6.45c2.63,1.2,4.6,2.63,6.25,4.15,1.33,1.23,2.45,2.52,3.52,3.79,3.56,4.21,6.7,8.26,15.65,9.42,7.32.95,13.37-1.49,17.83-5.02.25-.2.49-.4.73-.6-4.21,1.55-10.36,2.27-18.78-.32-18.58-5.71-20.77-30.41-14.78-53.35,0,0-4.56,5.46-9.26,19.82-4.71,14.36-8.79,2.07-7.93-6.95.86-9.02-4.53-3.36-5.87,3.55-.54,2.79-3.19-3.85-6.11-14.06-2.52-8.86-5.24-20.4-6.94-30.84-1.19-7.31-1.88-14.07-1.66-18.98,0,0-5.46,11.9-2.95,39.31Z"/>
          </g>
          <path class="cls-10" d="m333.69,338.87c-.09-.22-2.12-5.44-4.21-15.55-1.92-9.31-4.24-24.68-4.34-45.01h1.38c.1,20.19,2.4,35.44,4.3,44.69,2.06,10.01,4.13,15.32,4.15,15.37l-1.29.51Z"/>
          <path class="cls-33" d="m348.55,393.84c18.63,26.38,18.25,49.2,17.75,55.26,4.08-3.85,6.78-6.52,6.78-6.52,0,0,7.33-17.84-21.29-62.45-11.76-18.33-16.5-31.98-17.77-43.12l-4,8.46s-3.26,17.54,18.52,48.38Z"/>
          <g>
            <path class="cls-33" d="m327.27,347.74l.81-.02c-.02-.82,0-1.27,0-1.27l-.81-.03s-.02.48,0,1.33Z"/>
            <path class="cls-33" d="m362.35,443.29l.81-.05c.06.9.1,1.8.13,2.66l-.81.03c-.03-.85-.07-1.74-.13-2.63Zm-.51-5.24l.81-.1c.11.88.21,1.77.29,2.64l-.81.08c-.08-.86-.18-1.74-.29-2.62Zm-.8-5.21l.8-.15c.16.87.31,1.75.44,2.62l-.8.12c-.13-.86-.28-1.74-.44-2.6Zm-1.08-5.16l.79-.19c.2.86.4,1.73.58,2.59l-.8.17c-.18-.85-.37-1.72-.57-2.57Zm-1.35-5.09l.78-.23c.25.85.49,1.71.71,2.56l-.79.21c-.22-.84-.46-1.7-.71-2.54Zm-1.61-5.01l.77-.27c.29.83.58,1.68.85,2.52l-.77.25c-.27-.83-.55-1.67-.84-2.5Zm-1.88-4.92l.75-.31c.34.81.67,1.64.98,2.47l-.76.29c-.31-.82-.64-1.64-.97-2.45Zm-2.14-4.81l.73-.35c.38.79.75,1.61,1.11,2.41l-.74.33c-.36-.8-.73-1.6-1.1-2.39Zm-2.4-4.69l.71-.39c.42.77.84,1.56,1.24,2.35l-.72.37c-.4-.78-.81-1.56-1.23-2.33Zm-2.66-4.55l.69-.43c.47.75.93,1.51,1.37,2.27l-.7.41c-.44-.75-.9-1.51-1.36-2.25Zm-2.91-4.39l.66-.47c.51.72,1.01,1.46,1.5,2.19l-.68.45c-.48-.73-.98-1.46-1.48-2.18Zm-3.05-4.33l.67-.45c.49.72.99,1.45,1.5,2.17l-.66.47c-.51-.72-1.02-1.45-1.51-2.18Zm-2.84-4.49l.7-.41c.44.75.91,1.5,1.38,2.24l-.69.43c-.47-.75-.94-1.51-1.39-2.26Zm-2.58-4.64l.72-.37c.4.77.82,1.55,1.24,2.32l-.71.39c-.43-.77-.85-1.56-1.26-2.34Zm-2.3-4.79l.74-.33c.35.8.73,1.6,1.11,2.39l-.73.35c-.38-.8-.76-1.61-1.12-2.41Zm-2.02-4.92l.76-.29c.31.82.63,1.64.96,2.45l-.75.31c-.34-.82-.66-1.65-.97-2.47Zm-1.71-5.03l.78-.24c.25.83.53,1.67.81,2.5l-.77.26c-.29-.84-.56-1.69-.82-2.53Zm-1.39-5.13l.79-.19c.2.85.42,1.7.65,2.55l-.78.21c-.23-.86-.45-1.72-.65-2.58Zm-1.05-5.21l.8-.13c.14.85.3,1.72.47,2.59l-.8.16c-.18-.87-.34-1.75-.48-2.62Zm-.66-5.28l.81-.07c.07.85.16,1.73.27,2.61l-.81.1c-.11-.9-.21-1.79-.28-2.65Z"/>
            <path class="cls-33" d="m363.3,449.85c.02-.41.03-.85.03-1.31h-.81c0,.44-.01.88-.03,1.28l.81.03Z"/>
          </g>
          <g>
            <path class="cls-37" d="m365.33,311.27s16.8,66.33,25.56,63.48c8.76-2.84,21.17-16.02,20.19-30.16-.31-4.44.32-9.74,1.32-14.92,1.46-7.56,3.73-14.87,5.08-18.9.67-2.01,1.11-3.2,1.11-3.2-2.31-9.85-2.83-18.55-2.83-18.55-6.45-9.38-36.67-12.95-36.67-12.95l-2.85,7.3-1.84,4.71-9.06,23.19Z"/>
            <g>
              <g class="cls-15">
                <path class="cls-31" d="m374.39,288.08c1.44-.33,5.01.03,13.79,3.97,13.28,5.95,26.46,6.51,29.28,18.73.67-2.01,1.11-3.2,1.11-3.2-2.31-9.85-2.83-18.55-2.83-18.55-6.45-9.38-36.67-12.95-36.67-12.95l-2.85,7.3-1.84,4.71Z"/>
              </g>
              <g>
                <g>
                  <rect class="cls-10" x="362.32" y="300.58" width="35.05" height="1.38" transform="translate(-39.73 544.17) rotate(-68.49)"/>
                  <path class="cls-33" d="m384.98,298.53c0,1.17.93,2.12,2.1,2.12,1.17,0,2.12-.93,2.12-2.1,0-1.17-.93-2.12-2.1-2.12-1.17,0-2.12.93-2.12,2.1Z"/>
                  <path class="cls-33" d="m380.93,311.35c0,1.17.93,2.12,2.1,2.12,1.17,0,2.12-.94,2.12-2.1,0-1.17-.93-2.12-2.1-2.12-1.17,0-2.12.93-2.12,2.1Z"/>
                </g>
                <g>
                  <path class="cls-10" d="m376.22,279.38c5.16,8.64,20.34,11.4,30.18,11.29,9.51-.11,13.24-.17,11.9-6.65-.05-.22-.1-.45-.15-.69-.53-2.17-.49-4.3-.21-6.31.65-4.61,2.59-8.61,1.93-11.16-.96-3.66-6-3.36-6-3.36,0,0-18.21,1.2-20.4.14-2.03-.99-10.09-6.23-11.21-6.96-.09-.06-.13-.09-.13-.09,0,0-1.88,1.78-4.51,8.19-.24.59-.49,1.12-.75,1.62-2.53,4.95-5.32,6.12-.64,13.98Z"/>
                  <g class="cls-17">
                    <path class="cls-33" d="m376.22,279.38c5.16,8.64,20.34,11.4,30.18,11.29s13.49-.17,11.74-7.33c-.53-2.17-.49-4.3-.21-6.31-1.91,2.36-4.96,4.63-9.82,6.18-14.4,4.59-34.25-10.84-25.87-27.53-.09-.06-.13-.09-.13-.09,0,0-1.88,1.78-4.51,8.19-2.63,6.41-6.54,6.96-1.38,15.6Z"/>
                  </g>
                  <g class="cls-16">
                    <path class="cls-33" d="m376.22,279.38c5.16,8.64,20.34,11.4,30.18,11.29,9.51-.11,13.24-.17,11.9-6.65-1.55,2.19-5.76,4.24-16.35,3.7-17.84-.91-25.76-10.5-25.09-22.32-2.53,4.95-5.32,6.12-.64,13.98Z"/>
                  </g>
                </g>
              </g>
            </g>
          </g>
          <g class="cls-15">
            <path class="cls-31" d="m354.95,291.22c3.93-6.4,12.41-11.39,9.99,1.76-2.43,13.15-.56,21.67-.56,21.67.86-3.04,5.28-15.25,7.73-21.96-.01-.02-.02-.03-.04-.05-3.84-5.13-6.96-9.29-10.58-14.73-1.29-1.94-2.65-4.05-4.13-6.43-2.31,13.31-5.95,25.48-2.41,19.73Z"/>
          </g>
          <g class="cls-15">
            <path class="cls-31" d="m287.71,311.1c10.7-9.7,1.05-14.54,6.12-19.39,5.06-4.85,19.72-25.58,8.4-52.62-2.77-6.61-4.21-10.88-4.82-13.55-1.63-.29-3.23-.57-4.77-.84-1.43-.25-2.82-.48-4.12-.7-2.02-.34-3.87-.65-5.46-.91-.71-.12-1.37-.22-1.96-.32l-.37,25.8s-3.71,72.24,6.99,62.54Z"/>
          </g>
          <g>
            <path class="cls-6" d="m270.31,274.27c.41,1.25.89,2.68,1.46,4.32h0c.79,2.29,1.76,4.98,2.92,8.14.65,1.77,1.37,3.69,2.16,5.77.38,1,.77,2.04,1.18,3.12,2.72,7.11,4.37,12.83,5.43,18.06l7.14-12.3-.76-2.2-1.41-4.11-.79-2.32c6.64-11.18,10.19-21.81,10.19-21.81-.03-.12-.05-.24-.08-.36h0c-.33-1.48-.62-2.9-.86-4.28-1.06-6.01-1.31-11.04-1.24-15.08.1-6.09.89-9.96.64-11.65h0c-.02-.13-.04-.24-.07-.34-.58-1.9-5.22-10.62-7.7-15.23-.11-.21-.22-.42-.33-.61-.25-.46-.59-.85-.99-1.16-.16-.12-.33-.23-.51-.33-.66-.35-1.43-.5-2.21-.39-.2.03-.4.05-.6.07-1.57.15-2.87.01-3.88-.22-1.73-.4-2.62-1.09-2.62-1.09l-.12.71h0s-.89,5.38-.89,5.38l-1.38,16.53-.2,2.38-.51,6.1-.25,3.01-5.91,11.27s-.52.34,2.19,8.62Z"/>
            <g class="cls-19">
              <g class="cls-21">
                <path class="cls-9" d="m277.26,220.98h0c.78,2.95,1.93,5.51,3.56,5.3,2.68-.35,4.86-2.95,5.86-4.38-.66-.35-1.43-.5-2.21-.39-.2.03-.4.05-.6.07-1.57.15-2.87.01-3.88-.22-1.73-.4-2.62-1.09-2.62-1.09l-.12.71Z"/>
              </g>
              <g class="cls-21">
                <path class="cls-9" d="m274.03,254.38s10.87-12.22,10.9-16.2c.02-3.14-3.8,1.59-9.93,4.7l-.2,2.38-.51,6.1-.25,3.01Z"/>
              </g>
              <g class="cls-21">
                <path class="cls-9" d="m297.75,270.57c-.33-1.48-.62-2.9-.86-4.27-1.06-6.01-1.31-11.04-1.24-15.08.1-6.09.89-9.96.64-11.65-2.41,2.99-9.94,12.78-10.88,19.55-.75,5.38,7.05,9.38,12.35,11.46Z"/>
              </g>
              <g class="cls-17">
                <path class="cls-33" d="m290.6,301.37l-.76-2.2-1.41-4.11-.79-2.32s-15.12,16.5,2.96,8.63Z"/>
              </g>
              <g class="cls-17">
                <path class="cls-33" d="m270.31,274.27c.41,1.25.89,2.68,1.46,4.32h0c.79,2.29,1.76,4.98,2.92,8.14.65,1.77,1.37,3.69,2.16,5.77,2.67-6.57,6.59-19.92-6.54-18.22Z"/>
              </g>
            </g>
          </g>
          <path class="cls-10" d="m327.55,261.98l-1.38-.08c.97-16.18,3.07-28.86,3.09-28.99l1.36.23c-.02.13-2.1,12.74-3.07,28.85Z"/>
          <path class="cls-10" d="m360.98,331.73l-1.36-.25c3.65-20.06,11.87-39.63,11.96-39.83l1.27.54c-.08.19-8.24,19.63-11.87,39.54Z"/>
        </g>
      </g>
      <g>
        <g>
          <path class="cls-36" d="m269.26,209.42c.05.34.1.68.16,1.03,0,0-3.49,1.38-8.45,8.94,0,0-2.97-.24-6.36-.05-.64.04-1.3.09-1.95.16-.65-.07-1.31-.13-1.95-.16-3.38-.19-6.36.05-6.36.05-4.96-7.56-8.45-8.94-8.45-8.94.07-.45.14-.89.2-1.32.12-.88.21-1.73.27-2.55.8-10.68-2.99-16.37-2.99-16.37l19.28,4.61,19.28-4.61s-4.02,6.04-2.9,17.34c.06.61.13,1.23.23,1.87Z"/>
          <g>
            <ellipse class="cls-27" cx="252.8" cy="195.05" rx="16.78" ry="12.23"/>
            <g class="cls-20">
              <path class="cls-27" d="m269.42,210.45s-3.49,1.38-8.45,8.94c0,0-2.97-.24-6.36-.05-.64.04-1.3.09-1.95.16-.65-.07-1.31-.13-1.95-.16-3.38-.19-6.36.05-6.36.05-4.96-7.56-8.45-8.94-8.45-8.94.23-1.35.38-2.64.47-3.87,1.18.86,3.83,2.95,6.44,6.23,3.49,4.39,5.77,3.17,12.84,3.25,6.47.07,6.68-6.99,13.38-8.51.09.93.22,1.9.39,2.9Z"/>
            </g>
            <path class="cls-27" d="m269.42,210.45s-3.49,1.38-8.45,8.94c0,0-2.97-.24-6.36-.05-.64.04-1.3.09-1.95.16-.65-.07-1.31-.13-1.95-.16-3.38-.19-6.36.05-6.36.05-4.96-7.56-8.45-8.94-8.45-8.94.07-.45.14-.89.2-1.32,1.32,1.1,5.86,4.97,7.52,7.26,1.95,2.68,2.76,1.63,9.83,1.87,7.07.24,7.15.49,8.78-1.87,1.31-1.91,4.33-5.46,7.03-6.96.05.34.1.68.16,1.03Z"/>
          </g>
        </g>
        <g>
          <path class="cls-34" d="m295.64,50.02s1.54,8.13-7.23,12.44c-8.78,4.31,12.84,6.18,12.84,6.18,0,0,16.17-1.54,20.32-6.01,0,0-.41,15.6-21.78,19.34-21.38,3.74-26.01-19.91-25.85-19.99.16-.08,19.51-3.74,21.7-11.95Z"/>
          <g>
            <path class="cls-38" d="m224.55,62.86c.22,1.59.6,3.27,1.19,5.04.67,2.03,1.11,3.54,1.35,4.64.81,3.65-.5,2.61-2.14.45-1.88-2.48-4.2-6.45-4.25-6.54t0,0s0,0,0,0c-.02-.06-.58-2.03-.65-4.88,0-.33,0-.68,0-1.04.11-5.53,2.24-13.61,12.6-18.22-.14.1-9.92,7.24-8.09,20.56Z"/>
            <path class="cls-38" d="m220.7,66.44s0,0,0,0,0,0,0,0c-2.66-3.48-5.51-5.47-8.2-6.54-5.97-2.38-11.15-.28-11.67-.06,7.66-3.55,13.25-2.26,17.03.09.82.51,1.54,1.06,2.19,1.63,2.71,2.38,3.98,4.96,3.98,4.96,0,0,5.53,11.54-3.33-.08Z"/>
            <g class="cls-14">
              <path class="cls-34" d="m227.09,72.53c-.64.18-1.36.33-2.14.45-1.88-2.48-4.2-6.45-4.25-6.54t0,0s0,0,0,0c-2.66-3.48-5.51-5.47-8.2-6.54,1.19-.23,3.08-.4,5.36.03.82.51,1.54,1.06,2.19,1.63,0-.33,0-.68,0-1.04,1.42.49,2.94,1.24,4.5,2.34.22,1.59.6,3.27,1.19,5.04.67,2.03,1.11,3.54,1.35,4.64Z"/>
            </g>
          </g>
          <path class="cls-34" d="m184.94,127.96l3.82,17.56s10.73,21.78,22.35,26.66c11.62,4.88-6.1-56.89-6.1-56.89l-20.07,12.68Z"/>
          <path class="cls-34" d="m317.32,117.89l-.63,17.96s-6.68,23.34-17.25,30.21c-10.57,6.87-4.13-57.07-4.13-57.07l22.01,8.9Z"/>
          <path class="cls-36" d="m305.18,125.36s-2.16,22.91-6.12,39.06c-.9,3.68-1.9,7-2.98,9.63-5.17,12.49-24.84,22.5-39.84,24.56-1.23.17-2.43.28-3.58.34-1.15-.06-2.35-.17-3.58-.34-15-2.06-34.67-12.08-39.84-24.56-1.16-2.8-2.22-6.41-3.17-10.39-3.84-16.09-5.93-38.29-5.93-38.29,0,0,3.82-10.81,6.91-26.33,3.09-15.52,24.14-18.04,31.37-20.56,4.01-1.4,9.84,3.15,14.24,7.48,4.4-4.33,10.23-8.87,14.24-7.48,7.23,2.52,28.28,5.04,31.37,20.56,3.09,15.52,6.91,26.33,6.91,26.33Z"/>
          <g>
            <path class="cls-36" d="m204.53,142.59s-6.01-13.25-17.39-9.67-2.19,28.37,8.21,30.8c10.4,2.44,12.6-10.73,12.6-10.73l-3.41-10.4Z"/>
            <g class="cls-12">
              <path class="cls-27" d="m204.61,151.45s-1.38-4.8-6.1-6.58c-4.71-1.79-7.23,1.71-6.58,5.12.65,3.41,3.09,6.75,5.69,6.75s1.87-3.33,5.12-1.3c3.25,2.03,2.52-2.03,1.87-3.98Z"/>
            </g>
            <path class="cls-27" d="m202.54,149.34l1.22-.65c-.08-.15-2.03-3.74-5.6-4.61-2.06-.5-4.21.01-6.38,1.52l.79,1.13c1.79-1.24,3.52-1.69,5.14-1.34-1.01.5-1.73,1.86-1.73,3.46,0,2.02,1.15,3.66,2.58,3.66s2.58-1.64,2.58-3.66c0-.6-.1-1.16-.28-1.66,1.08,1.04,1.68,2.13,1.69,2.15Z"/>
          </g>
          <g>
            <path class="cls-36" d="m300.88,142.59s6.01-13.25,17.39-9.67c11.38,3.58,2.19,28.37-8.21,30.8-10.4,2.44-12.6-10.73-12.6-10.73l3.41-10.4Z"/>
            <g class="cls-12">
              <path class="cls-27" d="m300.8,151.45s1.38-4.8,6.1-6.58c4.71-1.79,7.23,1.71,6.58,5.12-.65,3.41-3.09,6.75-5.69,6.75s-1.87-3.33-5.12-1.3c-3.25,2.03-2.52-2.03-1.87-3.98Z"/>
            </g>
            <path class="cls-27" d="m302.87,149.34l-1.22-.65c.08-.15,2.03-3.74,5.6-4.61,2.06-.5,4.21.01,6.38,1.52l-.79,1.13c-1.79-1.24-3.52-1.69-5.14-1.34,1.01.5,1.73,1.86,1.73,3.46,0,2.02-1.15,3.66-2.58,3.66s-2.58-1.64-2.58-3.66c0-.6.1-1.16.28-1.66-1.08,1.04-1.68,2.13-1.69,2.15Z"/>
          </g>
          <path class="cls-34" d="m211.24,139.62l-.41-.88c12.56-5.88,19.21-16.84,19.77-32.56.42-11.77-2.93-21.93-2.96-22.03l.92-.31c.03.1,3.44,10.42,3.01,22.37-.25,7.04-1.76,13.26-4.48,18.5-3.41,6.56-8.75,11.58-15.85,14.91Z"/>
          <path class="cls-34" d="m252.39,114.58c-2.32-2.21-4.45-5.24-6.34-9.02-1.5-3.01-2.85-6.49-4-10.36-1.97-6.57-2.72-12.06-2.73-12.11l.97-.13c0,.05.75,5.48,2.7,11.98,1.79,5.97,4.99,14.11,10.07,18.94l-.67.71Z"/>
          <g class="cls-20">
            <path class="cls-27" d="m299.06,164.41c-.9,3.68-1.9,7-2.98,9.63-5.17,12.49-24.84,22.5-39.84,24.56-1.23.17-2.43.28-3.58.34-1.15-.06-2.35-.17-3.58-.34-15-2.06-34.67-12.08-39.84-24.56-1.16-2.8-2.22-6.41-3.17-10.39,7.01,7.35,47.89,46.05,92.99.76Z"/>
          </g>
          <path class="cls-34" d="m225.41,100.08s8.62-12.11,26.01-7.15c17.39,4.96-16.01-25.11-16.01-25.11l-19.26,15.69,9.27,16.58Z"/>
          <g>
            <path class="cls-38" d="m212.9,161.36s-6.58,1.54-11.62-9.43c-3.62-7.89-2.92-19.23-2.24-24.97.27-2.24.53-3.64.53-3.64l2.69.15,7.64.42s-.79,2.74-1.35,7.08c-.93,7.37-1.17,19.34,4.35,30.39Z"/>
            <path class="cls-38" d="m305.12,149.58c-5.04,10.97-11.62,9.43-11.62,9.43h0c6.79-13.59,4.87-28.59,3.66-34.67-.35-1.78-.65-2.8-.65-2.8l10.32-.57s3.33,17.64-1.71,28.61Z"/>
            <g class="cls-14">
              <path class="cls-34" d="m212.9,161.36s-6.58,1.54-11.62-9.43c-3.62-7.89-2.92-19.23-2.24-24.97,1.07-1.32,2.16-2.53,3.21-3.49l7.64.42s-.79,2.74-1.35,7.08c-1.58.45-5.4,2.27-6.86,9.42-1.87,9.1,4.55,19.83,11.22,20.97Z"/>
            </g>
            <g class="cls-14">
              <path class="cls-34" d="m305.12,149.58c-5.04,10.97-11.62,9.43-11.62,9.43h.02c3.09.08,11.62-6.26,11.46-19.83-.11-9.46-4.92-13.35-7.83-14.84-.35-1.78-.65-2.8-.65-2.8l10.32-.57s3.33,17.64-1.71,28.61Z"/>
            </g>
          </g>
          <path class="cls-38" d="m315.3,107.8c9.99-3.32,13.72-8.86,14.9-13.73,1.27-5.21-.39-9.66-.43-9.76h0s0,0,0,0c-.41.94-.89,1.79-1.39,2.55-1.32,1.96-2.89,3.32-4.37,4.26-.7.45-1.39.8-2.01,1.08,6.3-2.85,6.8-9.28,6.8-9.28-21.46,2.52-31.05-9.83-31.05-9.83,15.2,3.49,23.81-10.48,23.81-10.48-19.18,7.56-33.97-4.06-33.97-4.06,7.72-3.33,8.05-8.53,8.05-8.53-4.39,4.88-16.82,10.48-29.34,2.44-12.52-8.05-21.54-11.05-32.18-4.31-10.65,6.75-8.7,19.1-8.7,19.1-7.4-9.83-20.07-6.58-24.46,1.06-4.76,8.28-6.75,9.18-12.84,9.35-5.43.14-7.42-2.31-7.96-3.19,0-.02-.02-.03-.03-.05-.07-.12-.11-.21-.13-.24,0,0,0,0,0,0,3.05,8.44,8.78,8.98,12.64,8.21-.12.06-.23.12-.35.19-6.46,3.59-13.16,12.64-16.27,25.64-3.43,14.31-8.5,13.21-9.5,12.83,0,0,0,0-.01,0-.1-.04-.15-.06-.16-.07,0,0,0,0,0,0,7.96,9.18,17.13,5.03,20.64,2.88,0,0,0,0,0,0,.91-.56,1.44-.98,1.47-1-6.58,8.21-16.74,9.26-16.74,9.26,20.98,2.91,28.66-9.1,28.77-9.26-2.68,6.34-7.23,10.73-7.23,10.73,41.37-5.36,34.87-49.58,34.87-49.58l9.02,8.78-.73-15.52c.1.28.21.55.31.83,18.3,47.78,53.57,48.51,53.57,48.51-13.39-3.47-21.09-18.54-21.21-18.77,0,0,0,0,0,0,48.02,39.45,68.3-2.15,68.51-2.6,0,0,0,0,0,0-9.27,6.5-22.27,2.6-22.27,2.6Zm6.18-15.38c-1.42.57-2.43.73-2.51.75.92-.19,1.76-.44,2.51-.75Z"/>
          <g class="cls-14">
            <path class="cls-34" d="m192.34,116.5c-2.52,5.36-4.31,6.42-4.31,6.42-.33.32-.68.63-1.06.92,0,0,0,0,0,0-3.51,2.15-12.68,6.3-20.64-2.88,0,0,0,0,0,0,.05.02.11.05.16.07,0,0,0,0,.01,0,13.11,5.61,25.83-4.54,25.83-4.54Z"/>
          </g>
          <g class="cls-14">
            <path class="cls-34" d="m192.27,82.57c.12-.07.23-.13.35-.19-3.86.77-9.58.23-12.64-8.21,0,0,0,0,0,0,.02.03.06.12.13.24,0,.01.02.03.03.05,1.05,1.82,7.31,10.71,24.79.51,0,0-5.61,4.92-12.66,7.6Z"/>
          </g>
          <g class="cls-14">
            <path class="cls-34" d="m229.93,72.21s3.62-8.28,17.1-6.1c11.54,1.87,18.77,11.46,29.91,23.33,11.13,11.87,29.58,18.53,36.49,18.53,0,0-19.59,4.71-41.53-19.26-21.42-23.4-32.09-24.61-41.97-16.49Z"/>
          </g>
          <g class="cls-14">
            <path class="cls-34" d="m229.8,70.17s.44-14.91,18.61-13.82c17.64,1.06,23.08,22.51,47.22,23.98,0,0-11.62,4.55-31.05-13.57-16.83-15.7-31.78-6.18-34.79,3.41Z"/>
          </g>
          <g class="cls-14">
            <path class="cls-34" d="m230.53,74.48s-1.38-5.2-10.16.24c-8.78,5.45-14.14,16.42-14.14,16.42,0,0,5.16-14.98,14.63-19.1,8.78-3.82,9.35.24,9.67,2.44Z"/>
          </g>
          <g class="cls-14">
            <path class="cls-34" d="m227.61,69.69s-2.93-4.23-10.4-1.38c-7.48,2.84-10.57,8.21-10.57,8.21,0,0,4.04-8.25,11.38-10.24,7.48-2.03,9.59,3.41,9.59,3.41Z"/>
          </g>
          <g class="cls-14">
            <path class="cls-34" d="m290.27,126.58s-35.27-.72-53.57-48.51l-.03-.22s23.77,43.04,53.6,48.72Z"/>
          </g>
          <g class="cls-14">
            <path class="cls-34" d="m337.57,105.21c-.21.44-20.49,42.05-68.51,2.6,0,0-3.9-3.82-5.93-6.58.25.19,46.97,35.67,74.44,3.98Z"/>
          </g>
          <g class="cls-14">
            <path class="cls-34" d="m330.21,94.07c-10.07,5.27-17.18,1.62-17.18,1.62,4.94-1.08,8.47-2.79,10.98-4.57,2.11-1.49,3.49-3.03,4.37-4.26,1.04-1.46,1.38-2.5,1.39-2.55,0,0,0,0,0,0h0c.04.1,1.7,4.54.43,9.76Z"/>
          </g>
        </g>
      </g>
      <path class="cls-26" d="m331.88,235c-.54,14.87-13.22,33.11-23.08,45.13-6.36,7.75-11.54,12.9-11.54,12.9,0,0-33.49.89-9.83-18.37,1.9-1.55,3.71-3.14,5.42-4.76,4.64-4.38,8.63-8.96,12.01-13.4,10.95-14.39,15.57-27.35,15.57-27.35,1.78-.03,3.29.14,4.57.45,5.8,1.37,6.89,5.41,6.89,5.41Z"/>
      <g>
        <g>
          <path class="cls-36" d="m125.19,266.31s-3.78-6.31-2.13-25.93c1.65-19.62-4.92-22.36-5.07-29.11-.15-6.75-.69-14.69-.69-14.69,0,0-11.27-6.1-8.92,22.77l-2.33,2.66s-4.25-.86-16.68-17.35c-12.43-16.49-17.65-14.01-17.38-11.45,0,0-5.65-5.69-9.41-1.05l3.49,7.16s-10.08-5.36-.72,12.14c0,0-1.64-.97-3.29.33s1.11,6.81,12.35,22.56c0,0,6.37,11.31,12.82,17.68,0,0,3.1,6.53,3.59,12.6.49,6.07,31.53,2.82,31.53,2.82l2.84-1.13Z"/>
          <g>
            <path class="cls-27" d="m112.3,247.48c-2.37-5.83-5.86-9.65-10.36-11.38-7.15-2.73-14.51.79-14.58.82l-.61-1.24c.08-.04,2.02-.98,4.92-1.56,2.68-.54,6.73-.86,10.77.69,4.88,1.86,8.63,5.95,11.15,12.14l-1.28.52Z"/>
            <path class="cls-27" d="m79.13,228.06c-6.77-7.48-14.35-16.13-14.42-16.22l1.04-.91c.08.09,7.65,8.73,14.41,16.2l-1.02.93Z"/>
            <path class="cls-27" d="m82.16,221.78c-7.97-8.81-16.7-22.01-16.79-22.14l1.15-.76c.09.13,8.76,13.24,16.66,21.98l-1.02.93Z"/>
            <path class="cls-27" d="m88.03,217.21c-7.82-8.32-16.67-23.57-16.75-23.72l1.2-.69c.09.15,8.85,15.26,16.56,23.46l-1.01.95Z"/>
            <path class="cls-27" d="m79.76,229.91l-1.38-.08c0-.12.18-2.88,1.85-6.08,1.54-2.96,4.7-6.85,11.01-8.63l.37,1.33c-4.68,1.32-8.1,3.99-10.16,7.94-1.53,2.94-1.69,5.5-1.69,5.52Z"/>
            <path class="cls-27" d="m105.22,231.15c-1.38-7.73,2.36-12.13,2.52-12.31l1.04.91-.52-.45.52.45s-.88,1.03-1.58,2.91c-.65,1.73-1.28,4.57-.62,8.25l-1.36.24Z"/>
          </g>
          <g class="cls-20">
            <path class="cls-27" d="m87.67,235.61s17.04-6.54,24.79,10.47c0,0,1.07-11.33-1.82-18.67-2.89-7.34-3.57-.39-5.31-.91-1.74-.52-13.3-3.76-17.66,9.11Z"/>
          </g>
        </g>
        <g>
          <path class="cls-37" d="m233.18,284.28c-1.21,3.27-2.67,7.13-4.43,11.67-1.55,3.99-2.76,7.53-3.71,10.8-.74,2.55-1.33,4.93-1.81,7.22-.18.86-.34,1.71-.49,2.54-.54,3.05-.89,5.99-1.16,8.99-.03.32-.06.65-.08.98-.95,11.45-.85,24.27-5.26,49.03-7.96,44.7,3.66,75.02,3.66,75.02-.31.82-.91,1.76-1.75,2.8-2.01,2.49-5.4,5.51-9.46,8.55-.99.74-2.03,1.49-3.09,2.22-8.5,5.9-18.91,11.36-25.93,12.5-1.68.27-3.17.3-4.39.02-7.55-1.73-25.69-18.22-35.6-27.66-4.06-3.87-6.74-6.56-6.74-6.56,0,0-7.23-17.88,21.62-62.34.48-.73.94-1.46,1.39-2.18,4.01-6.35,7.14-12.12,9.57-17.42,3.23-7.04,5.21-13.24,6.3-18.83.21-1.08.39-2.14.54-3.17.07-.48.13-.96.19-1.43.66-5.53.45-10.44-.18-15-.12-.9-.26-1.78-.42-2.65-.1-.59-.21-1.17-.33-1.74-.55-2.76-1.21-5.41-1.87-8.02,0,0,0,0,0,0-.97-3.82-1.95-7.54-2.6-11.39-2.49-14.9.56-40.81,4.89-55.13.13-.44.27-.86.4-1.28.08-.26.17-.51.25-.76,1.42-4.19,2.95-7.08,4.45-7.94,0,0,0,0,0,0,1.28-.73,4.14-1.59,7.91-2.5.39-.09.79-.19,1.2-.29,2.02-.47,4.25-.95,6.61-1.43,3.51-.71,7.3-1.43,11.06-2.11,1.96-.35,3.91-.7,5.82-1.03,1.63-.28,3.23-.55,4.77-.81,1.44-.24,2.82-.47,4.13-.68,2.03-.33,3.87-.63,5.46-.88.71-.11,1.37-.22,1.97-.31,2.48-.39,3.97-.61,3.97-.61l2.93,32.27,5.85,11.3s.87.58-5.65,18.24Z"/>
          <path class="cls-37" d="m176.16,337.57c-1.39.38-2.67.68-3.81.91-3.95.79-6.35.79-6.35.79l-1.65,5.85-1.32,4.69-.03.1-4.39,2.52-5.61,6.42c-2.64,1.18-4.62,2.6-6.27,4.12-1.34,1.22-2.46,2.51-3.54,3.77-3.59,4.19-6.74,8.22-15.7,9.34-7.33.91-13.36-1.56-17.8-5.11-.25-.2-.49-.4-.73-.6-4.24-3.65-6.89-8.24-7.64-11.52-1.54-6.75,14.55-40.88,26.58-57.22,2.54-3.45,4.73-6.35,6.72-8.98.03-.04.06-.08.09-.13.01-.02.02-.03.04-.05,3.87-5.11,7.01-9.25,10.66-14.68,1.3-1.94,2.67-4.04,4.16-6.4,2.27-3.6,4.81-7.82,7.84-13.01,1.18-2.03,2.31-3.89,3.38-5.61,2.77-4.45,5.18-7.91,7.23-10.59.74-.97,1.43-1.83,2.08-2.6.2-.24.4-.47.59-.7,4.3-4.99,6.4-5.75,6.46-5.78,0,0,0,0,0,0,0,0,.37,7.32.8,18.09.05,1.36.11,2.77.16,4.23.32,8.49.65,18.56.86,28.7.02,1,.04,2,.06,3,0,.48.02.97.03,1.45.42,24.56.06,48.17-2.88,48.98Z"/>
          <path class="cls-10" d="m153.32,433.15l2.84,5.2s27.63-9.35,42.1-26.01l-3.25-5.53s-13.65,15.36-41.69,26.33Z"/>
          <g>
            <g>
              <path class="cls-10" d="m212.88,344.22l-5.3,2.79-12.12,6.39s-5.75-5.5-9.38-9.58c-1.7-1.91-2.93-3.51-2.9-4.08,0-.14.03-.42.06-.8.21-2.68.87-10.7,1.35-16.53.06-.73.12-1.42.17-2.06.22-2.63.37-4.44.37-4.44.05-.03.1-.07.15-.1.8-.55,1.59-1.03,2.39-1.45,10.41-5.5,20.58-.64,25.48,2.52,1.31.85,2.24,1.57,2.7,1.94.21.17.32.27.32.27l-.41,3.12-.4,3.04-2.11,16.11-.37,2.86Z"/>
              <path class="cls-28" d="m194.78,353.28c1.71-9.45,2.76-27.22,2.77-27.4l1.38.08c-.01.18-1.06,18.03-2.79,27.56l-1.36-.25Z"/>
            </g>
            <g>
              <path class="cls-10" d="m217.98,320.38l-19.9,6.34s-14.76-9.69-14.77-10.44c0-.15,0-.58.03-1.18.02-.54.04-1.22.07-1.94h0c.09-2.34.2-5.12.2-5.12,16.75-4.75,35.67,2.9,35.67,2.9l-.72,5.27-.19,1.37-.38,2.8Z"/>
              <g class="cls-17">
                <path class="cls-33" d="m217.98,320.38l-19.9,6.34s-14.76-9.69-14.77-10.44c0-.15,0-.58.03-1.18,1.52,1.39,4.49,3.83,7.81,5.04,4.79,1.74,4.24-4.85,8.18-4.62,3.94.23,2.28,4.62,7.1,5.78,4.62,1.12,10.46-1.49,11.94-3.73l-.38,2.8Z"/>
              </g>
              <path class="cls-28" d="m201.57,319.47c-.28,1.36-1.61,2.24-2.98,1.96-1.36-.28-2.24-1.61-1.96-2.98.28-1.36,1.61-2.24,2.98-1.96,1.36.28,2.24,1.62,1.96,2.98Z"/>
            </g>
          </g>
          <g class="cls-15">
            <path class="cls-31" d="m192.86,228.92c-1.78,1.36-3.54,3.02-5.16,5.03-8.13,10.08-7.72,29.67-7.72,29.67-.47-5.12-1.19-9.18-2.05-12.39-1.49-5.54-3.41-8.55-5.25-10.15-.91-.79-1.8-1.23-2.61-1.46.2-.24.4-.47.59-.7,4.3-4.99,6.4-5.75,6.46-5.78,0,0,0,0,0,0,1.28-.73,4.14-1.59,7.91-2.5.39-.09.79-.19,1.2-.29,2.02-.47,4.25-.95,6.61-1.43Z"/>
          </g>
          <g class="cls-15">
            <path class="cls-31" d="m183.53,308.95c-2.66,27.4,7.83,53.73-18.83,88.52-26.66,34.79-13.74,53.89-3.09,53.89,0,0-6.01,15.36,16.26,24.46.67.27,1.26.54,1.79.8-1.68.27-3.17.3-4.39.02-7.55-1.73-25.69-18.22-35.6-27.66-4.06-3.87-6.74-6.56-6.74-6.56,0,0-7.23-17.88,21.62-62.34.48-.73.94-1.46,1.39-2.18,4.01-6.35,7.14-12.12,9.57-17.42,3.23-7.04,5.21-13.24,6.3-18.83.21-1.08.39-2.14.54-3.17-3.95.79-6.35.79-6.35.79l-1.65,5.85-1.32,4.69-.03.1-4.39,2.52-5.61,6.42c-2.64,1.18-4.62,2.6-6.27,4.12-1.34,1.22-2.46,2.51-3.54,3.77-3.59,4.19-6.74,8.22-15.7,9.34-7.33.91-13.36-1.56-17.8-5.11-.25-.2-.49-.4-.73-.6,4.2,1.58,10.35,2.32,18.78-.22,18.61-5.61,20.93-30.3,15.06-53.27,0,0,4.53,5.48,9.16,19.87s8.78,2.11,7.96-6.91c-.81-9.02,4.55-3.33,5.85,3.58.53,2.79,3.22-3.83,6.18-14.03,2.57-8.84,5.35-20.37,7.1-30.8,1.23-7.3,1.95-14.06,1.76-18.97,0,0,5.4,11.92,2.74,39.33Z"/>
          </g>
          <path class="cls-10" d="m172.86,338.92l-1.28-.51c.02-.06,2.12-5.35,4.23-15.35,1.95-9.23,4.33-24.47,4.54-44.67h1.38c-.21,20.35-2.6,35.7-4.58,45-2.14,10.1-4.2,15.31-4.29,15.53Zm-.64-.26l-.64-.26s0,0,0,0l.64.26Z"/>
          <path class="cls-33" d="m157.71,393.81c-18.77,26.28-18.51,49.11-18.04,55.16-4.06-3.87-6.74-6.56-6.74-6.56,0,0-7.23-17.88,21.62-62.34,11.85-18.26,16.67-31.89,17.99-43.03l3.95,8.48s3.17,17.56-18.77,48.28Z"/>
          <g>
            <path class="cls-33" d="m179.24,347.82l-.81-.03c.03-.82.01-1.27.01-1.27l.81-.03s.02.48-.01,1.33Z"/>
            <path class="cls-33" d="m143.51,445.81l-.81-.03c.03-.86.08-1.75.15-2.66l.81.06c-.06.89-.11,1.78-.14,2.63Zm.37-5.25l-.81-.08c.09-.87.19-1.76.31-2.64l.81.11c-.11.87-.22,1.75-.31,2.62Zm.68-5.22l-.8-.13c.14-.87.29-1.75.45-2.62l.8.15c-.16.86-.31,1.74-.45,2.6Zm.97-5.18l-.79-.17c.18-.86.38-1.73.59-2.59l.79.19c-.21.85-.4,1.71-.59,2.57Zm1.24-5.12l-.78-.21c.23-.85.47-1.71.73-2.55l.78.23c-.25.84-.49,1.69-.72,2.53Zm1.51-5.05l-.77-.25c.27-.84.56-1.68.86-2.51l.77.27c-.29.82-.58,1.66-.85,2.49Zm1.77-4.96l-.76-.29c.32-.82.65-1.65.99-2.46l.75.31c-.34.81-.67,1.63-.99,2.44Zm2.04-4.86l-.74-.33c.36-.8.74-1.61,1.13-2.41l.73.35c-.38.79-.76,1.59-1.12,2.39Zm2.3-4.74l-.72-.37c.41-.78.83-1.57,1.26-2.34l.71.39c-.42.76-.84,1.54-1.24,2.32Zm2.55-4.61l-.7-.41c.45-.76.91-1.52,1.38-2.27l.69.43c-.47.74-.93,1.5-1.37,2.25Zm2.81-4.46l-.68-.45c.49-.73,1-1.47,1.51-2.19l.66.47c-.51.71-1.01,1.44-1.49,2.17Zm3.05-4.31l-.66-.47c.51-.71,1.02-1.44,1.51-2.16l.67.46c-.49.73-1.01,1.46-1.52,2.18Zm2.98-4.39l-.68-.44c.47-.74.94-1.49,1.39-2.24l.7.42c-.45.75-.92,1.51-1.4,2.26Zm2.73-4.55l-.71-.4c.43-.76.85-1.54,1.26-2.31l.72.38c-.41.78-.84,1.56-1.27,2.33Zm2.47-4.7l-.73-.36c.38-.79.76-1.59,1.12-2.38l.74.33c-.36.8-.74,1.61-1.13,2.4Zm2.19-4.84l-.75-.31c.34-.81.66-1.63.98-2.44l.76.29c-.31.82-.64,1.65-.98,2.47Zm1.89-4.96l-.77-.27c.29-.83.56-1.67.82-2.5l.78.24c-.26.84-.54,1.69-.83,2.52Zm1.58-5.07l-.78-.22c.23-.85.46-1.7.66-2.55l.79.19c-.21.85-.43,1.72-.67,2.57Zm1.25-5.17l-.8-.16c.18-.86.34-1.73.49-2.59l.8.14c-.15.86-.31,1.74-.49,2.61Zm.89-5.24l-.81-.11c.12-.89.21-1.77.29-2.61l.81.07c-.07.86-.17,1.75-.29,2.65Z"/>
            <path class="cls-33" d="m142.68,449.74c-.01-.41-.02-.85-.02-1.31h.81c0,.45,0,.88.02,1.28l-.81.03Z"/>
          </g>
          <g>
            <path class="cls-37" d="m141.38,311.16s-17.15,66.24-25.89,63.35c-8.74-2.89-21.09-16.13-20.03-30.27.33-4.44-.27-9.74-1.24-14.93-1.42-7.57-3.65-14.89-4.98-18.92-.66-2.01-1.1-3.21-1.1-3.21,2.36-9.83,2.93-18.53,2.93-18.53,6.5-9.35,36.74-12.76,36.74-12.76l2.82,7.32,1.81,4.72,8.94,23.24Z"/>
            <g>
              <g class="cls-15">
                <path class="cls-31" d="m132.43,287.92c-1.44-.33-5.01,0-13.82,3.89-13.32,5.88-26.5,6.37-29.38,18.57-.66-2.01-1.1-3.21-1.1-3.21,2.36-9.83,2.93-18.53,2.93-18.53,6.5-9.35,36.74-12.76,36.74-12.76l2.82,7.32,1.81,4.72Z"/>
              </g>
              <g>
                <g>
                  <rect class="cls-10" x="126.22" y="283.55" width="1.38" height="35.05" transform="translate(-100.33 66.31) rotate(-21.21)"/>
                  <path class="cls-33" d="m121.79,298.31c0,1.17-.95,2.11-2.11,2.11s-2.11-.95-2.11-2.11.95-2.11,2.11-2.11,2.11.95,2.11,2.11Z"/>
                  <path class="cls-33" d="m125.77,311.16c0,1.17-.95,2.11-2.11,2.11s-2.11-.95-2.11-2.11.95-2.11,2.11-2.11,2.11.95,2.11,2.11Z"/>
                </g>
                <g>
                  <path class="cls-10" d="m130.65,279.21c-5.2,8.62-20.4,11.3-30.23,11.13-9.51-.16-13.24-.24-11.86-6.71.05-.22.1-.45.16-.69.54-2.17.52-4.3.24-6.31-.62-4.61-2.55-8.62-1.87-11.17.98-3.66,6.01-3.33,6.01-3.33,0,0,18.21,1.3,20.4.24,2.04-.98,10.12-6.18,11.25-6.91.09-.06.13-.08.13-.08,0,0,1.87,1.79,4.47,8.21.24.59.49,1.13.74,1.63,2.5,4.97,5.29,6.15.56,13.98Z"/>
                  <g class="cls-17">
                    <path class="cls-33" d="m130.65,279.21c-5.2,8.62-20.4,11.3-30.23,11.13-9.83-.16-13.49-.24-11.7-7.4.54-2.17.52-4.3.24-6.31,1.9,2.37,4.94,4.66,9.78,6.23,14.38,4.67,34.31-10.66,26.01-27.39.09-.06.13-.08.13-.08,0,0,1.87,1.79,4.47,8.21,2.6,6.42,6.5,6.99,1.3,15.6Z"/>
                  </g>
                  <g class="cls-16">
                    <path class="cls-33" d="m130.65,279.21c-5.2,8.62-20.4,11.3-30.23,11.13-9.51-.16-13.24-.24-11.86-6.71,1.54,2.2,5.74,4.27,16.33,3.78,17.84-.82,25.81-10.36,25.2-22.19,2.5,4.97,5.29,6.15.56,13.98Z"/>
                  </g>
                </g>
              </g>
            </g>
          </g>
          <g class="cls-15">
            <path class="cls-31" d="m151.86,291.16c-3.9-6.42-12.35-11.46-10,1.71,2.36,13.17.45,21.67.45,21.67-.84-3.04-5.2-15.28-7.61-22,.01-.02.02-.03.04-.05,3.87-5.11,7.01-9.25,10.66-14.68,1.3-1.94,2.67-4.04,4.16-6.4,2.24,13.32,5.81,25.51,2.31,19.75Z"/>
          </g>
          <g class="cls-15">
            <path class="cls-31" d="m218.99,311.4c-10.65-9.75-.98-14.55-6.01-19.42-5.04-4.88-19.59-25.68-8.13-52.67,2.8-6.6,4.27-10.86,4.9-13.53,1.63-.28,3.23-.55,4.77-.81,1.44-.24,2.82-.47,4.13-.68,2.03-.33,3.87-.63,5.46-.88.71-.11,1.37-.22,1.97-.31l.23,25.8s3.33,72.25-7.31,62.5Z"/>
          </g>
          <g>
            <path class="cls-6" d="m236.59,274.66c-.42,1.25-.91,2.67-1.48,4.31h0c-.81,2.28-1.78,4.97-2.97,8.12-.66,1.77-1.39,3.68-2.19,5.76-.38,1-.78,2.04-1.2,3.11-2.76,7.1-4.44,12.8-5.52,18.03l-7.08-12.34.77-2.2,1.43-4.11.81-2.31c-6.58-11.22-10.08-21.86-10.08-21.86.03-.12.06-.24.08-.36h0c.34-1.48.63-2.9.88-4.27,1.09-6.01,1.36-11.03,1.32-15.07-.07-6.09-.84-9.97-.58-11.66h0c.02-.13.04-.24.08-.34.59-1.89,5.28-10.59,7.78-15.18.12-.21.23-.41.33-.61.25-.46.59-.85.99-1.15.16-.12.33-.23.52-.33.66-.35,1.43-.49,2.21-.38.2.03.4.05.6.07,1.57.16,2.87.03,3.88-.2,1.74-.39,2.63-1.08,2.63-1.08l.11.71h0s.86,5.38.86,5.38l1.29,16.54.19,2.38.48,6.11.24,3.01,5.85,11.3s.52.34-2.24,8.61Z"/>
            <g class="cls-19">
              <g class="cls-21">
                <path class="cls-9" d="m229.92,221.33h0c-.8,2.94-1.96,5.5-3.59,5.28-2.68-.37-4.84-2.98-5.84-4.41.66-.35,1.43-.49,2.21-.38.2.03.4.05.6.07,1.57.16,2.87.03,3.88-.2,1.74-.39,2.63-1.08,2.63-1.08l.11.71Z"/>
              </g>
              <g class="cls-21">
                <path class="cls-9" d="m232.97,254.75s-10.81-12.27-10.81-16.26c0-3.14,3.8,1.61,9.91,4.75l.19,2.38.48,6.11.24,3.01Z"/>
              </g>
              <g class="cls-21">
                <path class="cls-9" d="m209.16,270.81c.34-1.48.63-2.9.88-4.27,1.09-6.01,1.36-11.03,1.32-15.07-.07-6.09-.84-9.97-.58-11.66,2.4,3,9.88,12.83,10.78,19.61.72,5.38-7.1,9.34-12.41,11.39Z"/>
              </g>
              <g class="cls-21">
                <path class="cls-9" d="m216.15,301.65l.77-2.2,1.43-4.11.81-2.31s15.04,16.58-3.01,8.62Z"/>
              </g>
              <g class="cls-21">
                <path class="cls-9" d="m236.59,274.66c-.42,1.25-.91,2.67-1.48,4.31h0c-.81,2.28-1.78,4.97-2.97,8.12-.66,1.77-1.39,3.68-2.19,5.76-2.63-6.58-6.48-19.95,6.64-18.19Z"/>
              </g>
            </g>
          </g>
          <path class="cls-10" d="m179.41,262.06c-.88-16.11-2.9-28.74-2.92-28.86l1.36-.22c.02.13,2.05,12.82,2.93,29.01l-1.38.08Z"/>
          <path class="cls-10" d="m145.61,331.63c-3.52-19.93-11.58-39.4-11.66-39.6l1.28-.53c.08.2,8.2,19.81,11.75,39.89l-1.36.24Z"/>
        </g>
      </g>
      <g>
        <g>
          <path class="cls-26" d="m237.95,335.66c-1.43,2.1-4.03,4.73-8.15,8.01-11.02,8.77-24.13,15.97-36.23,21.41-20.29,9.13-37.74,13.32-37.74,11.75,0-2.09,3.4-12.38,4.57-15.85.24-.72.39-1.14.39-1.14,31.7-11.13,50.19-29.85,50.19-29.85,0,0,9.74-1.98,17.8-2.03,7.39-.05,13.36,1.52,9.16,7.7Z"/>
          <path class="cls-11" d="m237.95,335.66c-1.43,2.1-4.03,4.73-8.15,8.01-.78.62-1.58,1.24-2.38,1.85-3.91,2.96-8.05,5.73-12.27,8.3-7.12,4.33-14.52,8.1-21.57,11.27,21.65-12.87,20.07-26.37,2.5-17.26-16.19,8.4-30.56,12.04-35.66,13.16.24-.72.39-1.14.39-1.14,17.31-6.08,30.68-14.42,39.25-20.74,7.13-5.26,10.94-9.11,10.94-9.11,0,0,2.53-.51,6.08-1.03,3.41-.49,7.77-.98,11.72-1.01,4.61,3.42,8.39,6.54,9.16,7.7Z"/>
          <path class="cls-11" d="m331.88,235c-.89,24.46-34.62,58.03-34.62,58.03,0,0-33.49.89-9.83-18.37,7.03-5.73,12.8-12.07,17.43-18.16-2.32,5.58-3.44,11.17-.53,14.02,6.43,6.29,36.29-32.59,20.67-40.92,5.8,1.37,6.89,5.41,6.89,5.41Z"/>
          <path class="cls-13" d="m215.15,353.81c.34-3.25-.3-7.04-3.31-10.71-3.46-4.23-7.92-4.73-11.79-3.99,7.13-5.26,10.94-9.11,10.94-9.11,0,0,2.53-.51,6.08-1.03,3.34,5.2,7.62,12.11,10.35,16.55-3.91,2.96-8.05,5.73-12.27,8.3Z"/>
          <path class="cls-13" d="m308.8,280.13c-6.36,7.75-11.54,12.9-11.54,12.9,0,0-33.49.89-9.83-18.37,1.9-1.55,3.71-3.14,5.42-4.76-.05,2.81.87,6.22,4.33,9.39,3.52,3.23,7.89,2.55,11.62.83Z"/>
        </g>
        <g>
          <g>
            <path class="cls-30" d="m287.27,318.46c-1.08,1.38-2.2,2.76-3.36,4.16-3.77,4.55-7.9,9.14-12.02,13.45-.18.19-.37.38-.55.57-4.15,4.32-8.29,8.34-12.03,11.74-17.47,15.85-20.97,15.6-37.63.98-13.53-11.88-17.63-20.87-12.9-29.4.76-1.38,1.76-2.74,2.98-4.11.53-.59,1.09-1.18,1.71-1.76,3.16-3.04,9.33-8.08,16.7-13.73.46-.35.92-.7,1.38-1.05,17.73-13.49,41.47-29.84,47.18-30.57,8.29-1.06,19.61,19.26,21.13,24.63,1.38,4.86-4.34,14.59-12.59,25.1Z"/>
            <path class="cls-32" d="m287.27,318.46c-1.08,1.38-2.2,2.76-3.36,4.16-22.95-.53-62.12-2.12-75.13-2.66.76-1.38,1.76-2.74,2.98-4.11,15.94.66,54.64,2.2,75.51,2.61Z"/>
            <path class="cls-25" d="m271.34,336.64c-4.15,4.32-8.29,8.34-12.03,11.74-1.66,1.51-3.19,2.86-4.62,4.08-13.63,11.59-17.93,10.13-33.01-3.11-13.53-11.88-17.63-20.87-12.9-29.4.76-1.38,1.76-2.74,2.98-4.11.39-.43.8-.87,1.23-1.3.15-.15.31-.31.47-.46,3.16-3.04,9.33-8.08,16.7-13.73-4.88,7.37-8.48,18.03-.85,29.41,9.65,14.39,30.12,10.64,42.02,6.87Z"/>
            <path class="cls-25" d="m254.68,352.46c-13.63,11.59-17.93,10.13-33.01-3.11-13.53-11.88-17.63-20.87-12.9-29.4.76-1.38,1.76-2.74,2.98-4.11.39-.43.8-.87,1.23-1.3-2.17,6.99-2.56,17.54,8.19,27.82,12.26,11.72,25.83,11.52,33.49,10.1Z"/>
            <circle class="cls-24" cx="243.21" cy="345.53" r="5.53"/>
            <path class="cls-26" d="m271.89,336.06l-1.74-1.81-1.98-2.05c10.48-9.92,27.88-30.4,27.15-36.33-.42-3.39-10.97-20.89-17.56-19.26-6.58,1.63-41.86,27.71-41.86,27.71l-2.62-3.02-1.74-2.01c17.73-13.49,41.47-29.84,47.18-30.57,8.29-1.06,19.61,19.26,21.13,24.63,2.14,7.57-12.94,26.98-27.97,42.71Z"/>
          </g>
          <path class="cls-29" d="m271.89,336.06l-1.74-1.81c15.02-13.49,28.09-33.48,27.61-39.44-.49-6.01-12.68-23.98-19.26-23.41-6,.52-39.34,25.48-45.2,29.89l-1.74-2.01c17.73-13.49,41.47-29.84,47.18-30.57,8.29-1.06,19.61,19.26,21.13,24.63,2.14,7.57-12.94,26.98-27.97,42.71Z"/>
        </g>
      </g>
      <g>
        <path class="cls-27" d="m250.2,172.7c-.11,0-.23-.03-.33-.09-.33-.18-.46-.61-.27-.94.04-.08,1.12-1.98,3.29-1.98s3.09,1.68,3.13,1.75c.18.34.05.76-.29.93-.34.18-.76.05-.93-.29-.02-.04-.58-1.01-1.91-1.01s-2.05,1.22-2.08,1.27c-.13.23-.36.36-.6.36Z"/>
        <g>
          <g>
            <path class="cls-38" d="m239.78,139.81c-.74,2.42-3.31,3.79-5.74,3.04-2.42-.74-3.79-3.31-3.04-5.74.74-2.42,3.31-3.79,5.74-3.04,2.42.74,3.79,3.31,3.04,5.74Z"/>
            <path class="cls-38" d="m231.74,135.67s-2.39,4.04-3.95,5.77,6.25-2.08,6.25-2.08l-2.3-3.7Z"/>
          </g>
          <g>
            <path class="cls-38" d="m266.36,139.11c.73,2.43,3.29,3.8,5.72,3.07,2.43-.73,3.8-3.29,3.07-5.72-.73-2.43-3.29-3.8-5.72-3.07-2.43.73-3.8,3.29-3.07,5.72Z"/>
            <path class="cls-38" d="m274.42,135.02s2.37,4.05,3.92,5.79c1.54,1.74-6.24-2.11-6.24-2.11l2.32-3.68Z"/>
          </g>
          <path class="cls-27" d="m252.63,151.33c-.06,0-.12,0-.17,0-1.93.04-3.3-.55-4.08-1.74-1.74-2.66.38-7.33.47-7.53.16-.35.57-.5.92-.34.35.16.5.57.34.92-.53,1.16-1.67,4.52-.57,6.2.5.77,1.48,1.14,2.91,1.11h.01s.01,0,.01,0c1.43.03,2.41-.34,2.91-1.11,1.1-1.68-.04-5.04-.57-6.2-.16-.35,0-.76.34-.92.35-.16.76,0,.92.34.09.2,2.21,4.87.47,7.53-.76,1.16-2.07,1.74-3.91,1.74Z"/>
          <circle class="cls-27" cx="225.33" cy="162.34" r="8.78" transform="translate(11.47 339.52) rotate(-75.41)"/>
          <circle class="cls-27" cx="283.85" cy="160.39" r="8.78" transform="translate(-39.68 120.12) rotate(-22.37)"/>
          <g>
            <path class="cls-34" d="m264.6,165.83c-.56,2.19-3.21,2.48-6.13,2.33-1.94-.1-4-.39-5.66-.45-1.7.06-3.84.37-5.83.46-2.86.13-5.41-.19-5.96-2.34-.61-2.37.17-6.1,3.28-8.46,1.9-1.44,4.66-2.37,8.5-2.19h0c3.96-.19,6.77.81,8.67,2.32,2.97,2.37,3.71,6,3.11,8.33Z"/>
            <path class="cls-6" d="m261.48,157.51c-.35,1-.9,2.29-1.47,2.72-.77.58-4.63.39-7.1.29-2.47.1-6.33.29-7.1-.29-.6-.45-1.16-1.84-1.51-2.85,1.9-1.44,4.66-2.37,8.5-2.19h0c3.96-.19,6.77.81,8.67,2.32Z"/>
            <path class="cls-27" d="m258.47,168.07s0,.07,0,.1c-1.94-.1-4-.39-5.66-.45-1.7.06-3.84.37-5.83.46,0-.04,0-.07,0-.11,0-2.99,2.57-5.4,5.74-5.4s5.74,2.42,5.74,5.4Z"/>
          </g>
          <path class="cls-27" d="m234.68,146.78s-.05,0-.07,0c-2.26-.24-2.93-.49-3.04-.54l.54-1.27h-.01s.6.21,2.66.44c.38.04.65.38.61.76-.04.35-.34.62-.69.62Z"/>
          <path class="cls-27" d="m271.17,146.53c-.38,0-.69-.31-.69-.69,0-.38.31-.69.69-.69.58,0,2.26-.07,3.1-.37.36-.13.75.06.88.42.13.36-.06.75-.42.88-1.24.44-3.47.45-3.56.45Z"/>
          <g>
            <path class="cls-38" d="m236.39,130.48c-6.18,2.68-9.18,3.98-11.46,2.68-.44-.25-.8-.61-1.04-1.05-.92-1.67-.15-4.45,3.72-6.51,4.88-2.6,11.3-5.85,13.74-3.66.12.11.23.22.33.33,1.98,2.22.59,5.65-5.29,8.2Z"/>
            <path class="cls-38" d="m282.64,128.59c-.19.71-.65,1.29-1.28,1.65-2.28,1.3-5.28,0-11.46-2.68-4.75-2.06-6.57-4.7-6.05-6.81.16-.63.52-1.22,1.09-1.73,2.44-2.19,8.86,1.06,13.74,3.66,3.44,1.83,4.43,4.23,3.96,5.91Z"/>
            <g class="cls-14">
              <path class="cls-34" d="m241.67,122.28c1.98,2.22.59,5.65-5.29,8.2-6.18,2.68-9.18,3.98-11.46,2.68-.44-.25-.8-.61-1.04-1.05,1.99.39,5.2.28,9.98-1.88,5.72-2.58,7.37-5.86,7.81-7.96Z"/>
            </g>
            <g class="cls-14">
              <path class="cls-34" d="m282.64,128.59c-.19.71-.65,1.29-1.28,1.65-2.28,1.3-5.28,0-11.46-2.68-4.75-2.06-6.57-4.7-6.05-6.81.8,1.43,2.92,3.75,8.53,6.08,4.96,2.05,8.27,2.12,10.25,1.76Z"/>
            </g>
          </g>
        </g>
      </g>
    </g>
    <path class="cls-30" d="m331.55,204.63l2.15-6.84c.83-2.66,3.67-4.14,6.32-3.3l10,3.14c2.66.83,4.14,3.67,3.3,6.32l-2.15,6.84c-.83,2.66-3.67,4.14-6.32,3.3l-10-3.14c-2.66-.83-4.14-3.67-3.3-6.32Zm12.62-38.23c.81-2.59,3.53-4.06,6.16-3.35,4.6,1.24,8.37,1.9,11.31,1.98,3.89.11,7.22-1.22,9.99-3.99,2.77-2.77,5.24-7.61,7.41-14.53.87-2.78,1.22-5.07,1.04-6.86-.18-1.79-1.29-3.01-3.32-3.64-2.11-.66-3.78-.2-5.02,1.4-1.24,1.59-2.36,3.97-3.35,7.13l-1.04,3.31c-.83,2.66-3.67,4.14-6.32,3.3l-10.56-3.32c-2.66-.83-4.14-3.67-3.3-6.32l2.88-9.17c2.27-7.22,6.27-11.95,12.02-14.2,5.74-2.24,12.49-2.15,20.23.28,9.4,2.95,15.29,7.55,17.67,13.79,2.38,6.24,1.97,14.44-1.21,24.59-3.12,9.93-8.06,17.17-14.82,21.74-5.67,3.83-12.24,5.03-19.71,3.59-2.55-.49-5.07.95-5.85,3.42h0c-.83,2.66-3.67,4.14-6.32,3.3l-8.76-2.75c-2.66-.83-4.14-3.67-3.3-6.32l4.2-13.37Z"/>
    <path class="cls-37" d="m121.21,162.98c-1.13-2.47-.08-5.38,2.34-6.61,4.25-2.15,7.49-4.18,9.74-6.09,2.97-2.52,4.55-5.73,4.77-9.64.21-3.91-1.19-9.16-4.19-15.76-1.21-2.65-2.48-4.59-3.81-5.8-1.33-1.21-2.97-1.38-4.9-.49-2.01.92-2.94,2.38-2.8,4.4.14,2.02.89,4.53,2.27,7.54l1.44,3.16c1.16,2.54.04,5.53-2.5,6.68l-10.08,4.59c-2.54,1.16-5.53.04-6.68-2.5l-3.99-8.75c-3.14-6.89-3.32-13.08-.54-18.59,2.77-5.51,7.85-9.94,15.24-13.31,8.97-4.08,16.42-4.6,22.36-1.55,5.94,3.06,11.11,9.42,15.53,19.11,4.31,9.47,5.48,18.16,3.5,26.08-1.66,6.64-5.75,11.92-12.27,15.84-2.23,1.34-3.14,4.09-2.07,6.46h0c1.16,2.54.04,5.53-2.5,6.68l-8.36,3.81c-2.54,1.16-5.53.04-6.68-2.5l-5.81-12.75Zm16.15,36.88l-2.97-6.53c-1.16-2.54-.04-5.53,2.5-6.68l9.54-4.35c2.54-1.16,5.53-.04,6.68,2.5l2.97,6.53c1.15,2.54.04,5.53-2.5,6.68l-9.54,4.35c-2.54,1.16-5.53.04-6.68-2.5Z"/>
  </g>
</svg>